<svg xmlns="http://www.w3.org/2000/svg" width="1920.016" height="162.765" viewBox="0 0 1920.016 162.765"><g transform="translate(0.016 -3883.18)"><path d="M712.37,3941.058c-.553.241-.524.867.065.964a2.7,2.7,0,0,0,2.845-1.869,4.331,4.331,0,0,0-2.706-4.993c-2.834-1.08-5.839,1.024-5.321,2.348.683,1.747-.74,5.413-3.948,6.074-4.246.876-5.906-3.116-4.377-4.737,1.838-1.95,3.775.74,2.008,1.589-.765.368-.336,1.018.513.8,2.491-.651,3.408-4.636-.561-5.737-3.687-1.023-6.108,4.171-4.827,5.272a5.743,5.743,0,0,1-.608,9.226c-4.447,2.789-7.548-1.911-5.811-4.044,1.8-2.213,4.142.069,2.727,1.495-.938.945-.066,1.287.829.9,2.807-1.208,2.811-5.241-1.445-5.993-3.941-.7-6.477,4.477-5.167,5.765,2.206,2.171,2.319,7.068-1.094,8.6-3.26,1.464-6.686-1.54-5.064-3.876,1.053-1.517,3.025-.136,2.088.934-.335.384-.017.714.468.52,2.747-1.1,1.374-3.846-.515-4.368-1.923-.532-7.116,1.09-6.434,6.836.711,5.974,8.008,7.6,10.83,5.952a2.546,2.546,0,0,0,1.058-1.184,11.151,11.151,0,0,1,5.212-5.549,10.006,10.006,0,0,1,9.66.268c.374.185.717.006,1.382-.41a7.248,7.248,0,0,1,3.83-1.153,4.5,4.5,0,0,1,4.342,4.831c-.363,3.639-4.334,4.217-5.119,2.436a1.308,1.308,0,0,1,2.024-1.608.655.655,0,0,0,1.077-.146,2.2,2.2,0,0,0-2.27-2.832c-2.486.095-3.312,1.889-3.155,2.95s.472,4.351-2.48,5.862c-2.767,1.416-5.343-.331-4.706-2.255.73-2.205,3.07-1.4,2.963-.1-.042.515.376.772.854.462,1.268-.825,1.566-3.275-1.579-4.163-2.905-.82-7.309,3.353-6.457,7.96a12.7,12.7,0,0,0,9.9,9.537c2.465.406,3.219-1.31.756-1.871-2.568-.585-5.442-2.271-6.585-4.45-.932-1.774,1.16-2.3,1.861-1.3,2.948,4.194,7.445,3.959,11.41,3,9.317-2.259,19.6-2.641,24.3-.829,2.278.879,1.443,3.043-1.113,2.441-8.188-1.925-17.189.111-23.77,1.347-1.75.329-1.482,2.214.462,2.176,5.22-.1,10.088-1.663,14.557-1.348,2.214.156,2.157,2.258-.711,2.4-5.437.272-10.757,1.405-15.868,2.009-7.092.838-12.107-1.588-14.765-4.212-1.31-1.293-3.577-.205-1.811,1.741a17.481,17.481,0,0,0,16.165,5.3c10.7-1.727,19.463-2.917,23.775-1.532,2.775.891,1.676,3.529-1.111,2.856-6.828-1.646-16.677.676-23.642,1.591-11.353,1.492-17.8-6.155-18.735-7.983s-3.608-1.792-2.283,1.3c1.473,3.434,7.336,7.644,11.975,8.332,1.8.268,1.65,2.443-.794,2.14a16.922,16.922,0,0,1-9.144-4.144,1.241,1.241,0,1,0-1.745,1.755c5.433,5.153,10.344,5.383,16.572,6.034,8.384.876,16.631-2.709,24.919-.417,3.393.938,2.771,3.439-.824,2.67-9.237-1.976-15.632,2.331-28.261.586-2.756-.381-2.757,1.731-.361,2.282,8.6,1.977,17.16-.991,20.908-.407,2.855.446,1.918,2.986-.527,2.743-5.557-.553-13.978,3.329-28.452-1.112-8.153-2.5-23.7-12.9-28.763-31.67-4.49-16.634,6.567-28.176,12.81-29.328a2.411,2.411,0,0,0,1.858-1.372c4-7.147,10.09-6.827,12.59-6.172,1.12.294,1.291.554,2.307-.186,6.21-4.523,10.217-2.006,11.232-1.447a3.14,3.14,0,0,0,3.062.388c1.531-.761,7.882-3.289,11.927,3.573s-3.542,11-6.661,8.787c-2.831-2-.545-4.95.93-4.691,1.672.294,1.726,1.94.519,2.467Zm-20.009,54.378a24.429,24.429,0,0,1-11.882-7.915c-1.165-1.373-2.763-.022-1.563,1.668,3.131,4.408,9.8,7.683,12.076,8.127,2.976.582,3.041-1.331,1.369-1.88Zm-9.026-14.364c-2.058-3.538-4.705-2.116-2.128,1.528,1.084,1.533,2,1.812,2.454,1.377s.444-1.582-.326-2.905Zm41.5,20.838c2.858.9,3.406-1.664,1.044-2.265-1.307-.332-2.056.081-2.235.654s.213,1.3,1.191,1.611Zm-20.653-10.156c8.927,1.051,19.031-5.293,31.147,1.041,2.212,1.156,3.884-1.128,1.678-2.576-10.493-6.892-27.948-.009-32-.509-2.672-.33-2.3,1.87-.829,2.044Zm33.79-4.064c2.991,1.993,4.387-.279,1.873-1.791-1.39-.836-2.37-.729-2.747-.243s-.149,1.352.874,2.034Zm-22.511-18.029c-4.866.225-9.41,3.032-12.66-.041a1.159,1.159,0,1,1,1.483-1.78c3.009,2.379,7.215-.818,10.891-.193,1.981.336,1.694,1.949.286,2.014Zm-30.236-9.5c-1.507-.024-3.621-.759-4.239-2.065-.505-1.068-1.78-.766-1.236.643.631,1.636,2.426,2.54,4.973,2.7,1.534.1,2.248-1.25.5-1.277Zm45.348,19.587a22.142,22.142,0,0,1,12.189,4.382c1.539,1.195,3.109-.116,1.449-1.841-3.693-3.837-10.359-5.24-13.361-5.2-2.272.031-2.745,2.519-.277,2.658Zm-43.8-21.8c-1.271-.293-1.317.793-.466.96.627.124,1.037-.049,1.144-.286s-.091-.538-.678-.674Zm21.216,8.51c1.575.3,4.245-.957,5.1-.9,1.383.1,1.914-1.431.321-1.571-1.56-.137-3.789,1.061-5.389.667-1.4-.346-1.639,1.489-.031,1.8Zm31.834,9.88c2.638.945,5.831,2.344,7.622,4.778.845,1.149,3.1.128,1.544-2.077-1.333-1.89-4.432-3.871-7.441-4.713-2.294-.642-2.944,1.575-1.725,2.012Zm-13.732-22.617c-1.9,1.8-.364,3.67,1.637,3.744,2.259.084,4.772-3.285,2.033-6.571-3.427-4.11-12.7-1.888-14.277,5.335-1.377,6.292,4.262,11.436,10.578,12.182,5.177.611,19.972-.512,24.026,6.3.868,1.456,2.673.726,1.977-1.149-.8-2.155-4.876-6.091-10.661-6.151-1.657-.017-1.75-1.408.576-1.681a13.95,13.95,0,0,1,10.041,3.581c1.352,1.379,2.574.049,1.446-1.468-4.648-6.255-17.433-4.267-19.679-4.268-1.667,0-1.5-1.4.041-1.58,5.427-.637,20.671-2.847,26.067,10.028.654,1.562,2.318,1.069,1.856-.98-.567-2.517-4.562-9.384-13.25-11.028-1.132-.214-1.2-1.563.35-1.56,2.534,0,5.112,1.54,6.247,2.125,1.348.7,2.282-.479.737-1.664-4.242-3.253-11.549-4.058-20.519-.365-7.172,2.953-10.987,2.116-13.354-.458-2.118-2.3.025-5.74,3.045-5.716,1.49.012,1.485.967,1.083,1.348Zm-29.1-1.057c-.417-1.441,1.012-1.961,1.287-.52.137.72-.1,1.122-.422,1.208s-.707-.142-.865-.688Zm5.732-5.824a14.334,14.334,0,0,0-1.533,5.787c.006,1.13-1.212,1.445-1.392.026a13.811,13.811,0,0,1,1.087-6.036c.868-1.642,2.406-.892,1.838.223Zm25.83,15.414c-3.7.608-6.649-.985-7.452-2.617-.548-1.114-1.577-.7-1.228.625.695,2.638,5.016,4.456,9.022,3.381,1.384-.371,1.146-1.634-.342-1.389Zm-25.287-10.239c.1-1.51,1.612-1.557,1.379-.093-.116.731-.48,1.04-.8,1.023s-.612-.36-.574-.93Zm51.243,20.744c1.227,2.932,3.728,1.973,2.306-.612-.711-1.292-1.453-1.536-1.935-1.258a1.5,1.5,0,0,0-.371,1.87Zm-47.812-21.286a12.149,12.149,0,0,1,3.261-5.4c1.755-1.495,2.916-.418,1.56.653a12.438,12.438,0,0,0-3.577,4.933c-.446,1.216-1.463.8-1.244-.19Zm-2.462-3.118a9.872,9.872,0,0,1,2.509-4c1.4-1.2,2.121.152,1.329.781a10.233,10.233,0,0,0-2.652,3.3c-.476,1.061-1.509.977-1.186-.086Zm54.843,14.878a13.881,13.881,0,0,1,4.715,7.005c.27,1.226,1.736,1.031,1.595-.5-.3-3.207-3.248-6.739-4.943-7.657-1.789-.97-2.3.372-1.367,1.147Zm-23.494-6.709c5.476-2.8,12.033-3.661,16.495-1.851,1.461.592,1.989-.911.3-1.757-3.28-1.643-11.374-2.066-17.129,1.437-1.922,1.17-1.3,3.007.333,2.171Zm-11.343-14.839c-.672.377-.214.824.589.778a3.033,3.033,0,0,0,2.7-3.759c-.773-2.715-3.913-3.334-6.325-2.656-1.286.362-1.229-.821-.545-1.278a6.376,6.376,0,0,1,3.245-.855c1.169.077,1.228-.959.047-1.442a7.847,7.847,0,0,0-4.806.216c-1,.425-1.793-.852-.049-1.669a10.229,10.229,0,0,1,4.982-.619c.892.148,1.618-.819.363-1.495-.9-.485-4.323-1.732-9.148.389-.937.412-2.16-.762-.346-1.876a13.523,13.523,0,0,1,12.17-.959c4.823,1.755,6.679,5.1,7.156,8.143.073.472.1,1.309,1.548,1.563,5.26.928,8.068,5.481,6.256,9.182-1.57,3.206-4.859,4.079-6.413,3.453-2.312-.931-2.76-2.885-1.661-4.223,1.514-1.842,3.7-1.21,3.645.752-.032,1.121,1.171,1.319,1.589.152,1.3-3.626-3.254-6.163-5.9-5.4-2.072.6-2.844,2.549-4.772,4-3.727,2.808-8.325.437-7.493-3.038,1.147-4.789,6.268-1.1,3.176.637Zm3.377-9.741a5.254,5.254,0,0,1,2.87,3.242c.443,1.125,1.343.585,1.323-.582a5,5,0,0,0-3.033-4.194c-1.759-.777-2.56.889-1.16,1.534Z" fill="#ffe56e" fill-rule="evenodd"/><path d="M242.065,3913.077c-.654.35-.557,1.114.175,1.175a3.316,3.316,0,0,0,3.3-2.571c.479-1.5-.609-4.916-3.81-5.849-3.579-1.043-7.051,1.832-6.286,3.4,1.01,2.072-.371,6.7-4.236,7.832-5.115,1.492-7.543-3.234-5.831-5.371,2.059-2.57,4.7.533,2.617,1.749-.9.526-.31,1.28.708.923,2.987-1.044,3.716-6.016-1.255-6.972-4.619-.889-7.07,5.713-5.393,6.936,3.288,2.4,4.51,8.125.168,11.363-5.172,3.856-9.436-1.595-7.519-4.379,1.989-2.89,5.082-.325,3.489,1.561-1.055,1.25.046,1.583,1.1,1.023,3.32-1.758,2.927-6.7-2.362-7.2-4.9-.463-7.492,6.125-5.76,7.573,2.918,2.442,3.54,8.43-.489,10.645-3.849,2.115-8.344-1.226-6.587-4.248,1.139-1.963,3.692-.467,2.65.937-.373.5.05.877.624.591,3.257-1.625,1.3-4.847-1.063-5.3-2.409-.461-8.61,2.04-7.205,9.012,1.461,7.249,10.561,8.516,13.856,6.22a3.134,3.134,0,0,0,1.179-1.555,13.707,13.707,0,0,1,5.836-7.314,12.294,12.294,0,0,1,11.861-.626c.477.189.879-.064,1.652-.639a8.9,8.9,0,0,1,4.579-1.792,5.531,5.531,0,0,1,5.8,5.488c-.086,4.494-4.893,5.595-6.031,3.492a1.607,1.607,0,0,1,2.32-2.17.805.805,0,0,0,1.305-.286,2.708,2.708,0,0,0-3.06-3.244c-3.036.361-3.872,2.641-3.574,3.925s1.008,5.283-2.459,7.427c-3.249,2.008-6.578.123-5.988-2.3.676-2.774,3.623-2.02,3.62-.414,0,.635.537.909,1.092.481,1.472-1.136,1.6-4.166-2.345-4.943-3.641-.718-8.623,4.83-7.125,10.39s7.331,10.23,13.078,10.7c3.06.254,3.814-1.924.741-2.368-3.2-.462-6.892-2.243-8.508-4.8-1.317-2.082,1.194-2.934,2.151-1.783,4.027,4.847,9.513,4.113,14.275,2.543,11.191-3.688,23.745-5.173,29.683-3.417,2.878.85,2.07,3.584-1.121,3.1-10.222-1.548-21.049,1.835-28.989,4-2.11.575-1.6,2.858.782,2.62,6.385-.641,12.2-3.037,17.7-3.092,2.728-.028,2.866,2.552-.633,3.012-6.634.87-13.039,2.785-19.241,4.03-8.606,1.729-14.99-.747-18.505-3.7-1.733-1.455-4.4.1-2.046,2.312,5.469,5.128,12.85,6.729,20.328,4.9,12.935-3.174,23.554-5.5,28.975-4.229,3.487.818,2.4,4.158-1.079,3.61-8.528-1.342-20.365,2.477-28.807,4.287-13.761,2.951-22.416-5.779-23.741-7.927s-4.6-1.838-2.67,1.813c2.145,4.061,9.745,8.638,15.495,9.023,2.239.149,2.264,2.829-.761,2.7a20.806,20.806,0,0,1-11.612-4.173,1.526,1.526,0,1,0-1.965,2.323c7.166,5.776,13.206,5.572,20.9,5.753,10.358.244,20.107-4.964,30.487-2.976,4.25.813,3.735,3.94-.745,3.353-11.512-1.507-18.92,4.4-34.565,3.514-3.414-.2-3.206,2.392-.216,2.831,10.731,1.571,20.925-2.912,25.574-2.567,3.541.264,2.645,3.469-.375,3.412-6.862-.128-16.794,5.461-34.966,1.453-10.236-2.258-30.307-13.463-38.37-35.954-7.147-19.934,5.258-35.168,12.793-37.2a2.96,2.96,0,0,0,2.139-1.864c4.19-9.151,11.687-9.361,14.814-8.806,1.4.25,1.636.551,2.807-.456,7.161-6.156,12.319-3.469,13.618-2.884s2.548.919,3.79.172c1.8-1.083,9.33-4.808,14.965,3.2s-3.252,13.823-7.291,11.425c-3.667-2.177-1.157-6.01.675-5.839,2.077.2,2.306,2.205.88,2.97Zm-19.133,68.6a30.015,30.015,0,0,1-15.34-8.521c-1.564-1.567-3.388.246-1.75,2.2,4.271,5.09,12.772,8.442,15.6,8.761,3.7.418,3.594-1.931,1.492-2.439Zm-12.479-16.7c-2.872-4.131-5.974-2.127-2.456,2.083,1.479,1.77,2.63,2.021,3.142,1.444s.387-1.983-.686-3.527Zm52.9,21.424c3.589.815,4.007-2.376,1.053-2.878-1.633-.279-2.511.3-2.673,1.022s.391,1.578,1.62,1.856ZM237.046,3976c11.04.4,22.791-8.367,38.262-1.806,2.824,1.2,4.646-1.765,1.8-3.322-13.538-7.4-34.241,2.754-39.249,2.542-3.307-.14-2.639,2.519-.814,2.586Zm40.994-8.321c3.861,2.146,5.347-.776,2.118-2.379-1.786-.887-2.976-.659-3.389-.026s-.049,1.671,1.271,2.405Zm-29.361-19.86c-5.94.756-11.229,4.645-15.514,1.2a1.424,1.424,0,1,1,1.641-2.327c3.921,2.617,8.758-1.715,13.323-1.314,2.46.216,2.268,2.221.55,2.44Zm-37.982-8.647c-1.848.12-4.511-.571-5.4-2.11-.724-1.258-2.256-.763-1.45.91.934,1.942,3.223,2.872,6.359,2.815,1.889-.035,2.63-1.754.489-1.615Zm57.493,19.51a27.217,27.217,0,0,1,15.366,4.163c2,1.312,3.8-.449,1.594-2.4-4.9-4.335-13.209-5.394-16.883-5.048-2.78.263-3.114,3.358-.077,3.284ZM212.368,3936.3c-1.585-.234-1.535,1.1-.476,1.222.781.089,1.266-.163,1.373-.464s-.164-.65-.9-.758Zm26.833,8.326c1.961.218,5.107-1.593,6.159-1.6,1.7-.014,2.2-1.944.238-1.957-1.925-.013-4.537,1.675-6.536,1.35-1.748-.285-1.861,1.987.139,2.208Zm39.978,8.956c3.325.9,7.375,2.294,9.811,5.1,1.149,1.324,3.81-.15,1.685-2.7-1.82-2.183-5.812-4.3-9.582-5.037-2.874-.56-3.451,2.221-1.914,2.636Zm-19.06-26.351c-2.153,2.4-.084,4.532,2.376,4.425,2.776-.12,5.521-4.5,1.84-8.251-4.6-4.7-15.74-1.058-16.963,7.948-1.064,7.844,6.353,13.589,14.164,13.878,6.4.237,24.418-2.6,30.058,5.336,1.206,1.7,3.346.625,2.307-1.6-1.193-2.56-6.575-6.98-13.669-6.481-2.031.143-2.282-1.552.54-2.117,3.2-.64,9.192.39,12.655,3.4,1.793,1.556,3.158-.194,1.627-1.942-6.313-7.2-21.779-3.5-24.532-3.282-2.042.164-1.977-1.565-.105-1.94,6.585-1.317,25.042-5.533,32.926,9.708.956,1.848,2.945,1.08,2.177-1.385-.944-3.028-6.518-11.045-17.323-12.2-1.408-.151-1.626-1.8.274-1.947,3.1-.245,6.415,1.381,7.864,1.986,1.72.718,2.748-.812.738-2.112-5.519-3.565-14.55-3.828-25.175,1.584-8.493,4.326-13.25,3.679-16.405.759-2.822-2.612-.537-7.034,3.166-7.3,1.827-.133,1.915,1.037,1.46,1.543Zm-35.755,1.585c-.653-1.725,1.046-2.5,1.525-.765.239.868-.018,1.385-.4,1.522s-.88-.1-1.127-.757Zm6.446-7.7a17.626,17.626,0,0,0-1.306,7.241c.119,1.384-1.341,1.89-1.7.169a16.976,16.976,0,0,1,.734-7.5c.9-2.1,2.86-1.33,2.274.093Zm33.169,16.327c-4.466,1.111-8.243-.549-9.389-2.468-.781-1.31-2-.7-1.442.886,1.112,3.164,6.585,4.963,11.387,3.251,1.659-.592,1.242-2.116-.556-1.669ZM231.987,3927.4c-.025-1.86,1.821-2.067,1.681-.251-.071.908-.487,1.322-.886,1.334s-.785-.38-.795-1.083Zm64.83,20.345c1.793,3.471,4.762,2.048,2.765-.978-1-1.513-1.933-1.738-2.5-1.35a1.842,1.842,0,0,0-.269,2.328ZM236.136,3926.4a14.925,14.925,0,0,1,3.462-6.932c2-2.006,3.531-.8,1.976.645a15.277,15.277,0,0,0-3.894,6.4c-.427,1.535-1.714,1.12-1.544-.11Zm-3.325-3.575a12.162,12.162,0,0,1,2.679-5.147c1.6-1.614,2.614-.024,1.705.826a12.588,12.588,0,0,0-2.922,4.309c-.477,1.346-1.751,1.346-1.462.012Zm68.661,12.8a17.063,17.063,0,0,1,6.47,8.115c.451,1.475,2.229,1.091,1.9-.764-.682-3.9-4.645-7.935-6.813-8.892-2.287-1.011-2.78.683-1.561,1.541Zm-29.446-5.9c6.432-3.977,14.379-5.676,20.025-3.9,1.849.581,2.346-1.313.2-2.182-4.182-1.689-14.139-1.406-20.843,3.454-2.239,1.624-1.3,3.814.623,2.627Zm-15.364-17.057c-.787.529-.181,1.031.8.895a3.728,3.728,0,0,0,2.93-4.871c-1.215-3.251-5.123-3.7-8.011-2.629-1.54.57-1.588-.884-.795-1.511a7.833,7.833,0,0,1,3.892-1.369c1.439-.021,1.409-1.3-.086-1.772a9.643,9.643,0,0,0-5.866.74c-1.183.62-2.281-.866-.225-2.04a12.59,12.59,0,0,1,6.042-1.251c1.108.093,1.9-1.163.3-1.867-1.151-.505-5.467-1.7-11.169,1.382-1.107.6-2.722-.721-.609-2.264,1.769-1.292,6.848-4.571,14.815-2.379,6.082,1.673,8.686,5.586,9.571,9.268.137.57.258,1.593,2.051,1.762,6.537.616,10.426,5.916,8.573,10.63-1.606,4.083-5.549,5.477-7.515,4.864-2.925-.911-3.667-3.261-2.452-5.009,1.672-2.406,4.415-1.849,4.54.561.071,1.376,1.564,1.5,1.961.029,1.233-4.571-4.6-7.228-7.766-6.029-2.48.937-3.233,3.4-5.452,5.375-4.288,3.809-10.155,1.358-9.479-2.981.931-5.98,7.57-1.962,3.954.466Zm3.173-12.268a6.452,6.452,0,0,1,3.836,3.688c.655,1.335,1.705.584,1.565-.843a6.155,6.155,0,0,0-4.131-4.839c-2.233-.778-3.049,1.343-1.27,1.994Z" fill="#ffe56e" fill-rule="evenodd"/><path d="M624.177,3931.457c.783-.079,1.054-1.228-.3-1.647-2.047-.632-3.719.756-4.4,2.531-1.008,2.633,1.029,5.455,3.237,6.6a1.733,1.733,0,0,0,1.564-.022c1.27-.414,3.323-2.712,8.441-3.13,9.279-.757,14.165,6.825,12.98,12.249-1.232,5.634-6.325,7.466-9.923,5.867-4.666-2.075-4.181-7.412-1.025-7.892a3.183,3.183,0,0,1,3.728,4.084c-.583.808.084,1.749,1.235,1.1,1.636-.918,3.328-5.652-.505-8.255a7.9,7.9,0,0,0-11.772,2.469c-.8,1.573-.368,3.646,1.224,5.433,3.91,4.385,1.772,8.829-.867,10.328-3.134,1.779-7.42.152-7.808-3.5-.219-2.066,1.785-3.9,3.572-3.237,1.878.692,2.477,2.916.384,3.694-1.32.49-.222,1.53.9,1.235a3.563,3.563,0,0,0,2.609-3.339c.13-2.05-2.382-5.92-6.49-4.377-5.718,2.15-5.122,8.347-1.775,12.372,5.07,6.1,12.38,9.913,17.222,10.611,2.394.345,1.864,2.462-.026,2.317-6.821-.522-14.66-5.756-16.665-7.723-1.341-1.317-3.391-.344-1.827,1.323,4.8,5.117,15,9.129,23.393,9.97,15.318,1.535,21.739,9.233,23.464,11.58s-.591,4-2.074,1.924c-2.7-3.78-11.232-9.54-22.98-10.693-16.817-1.65-25.023-10.019-28.417-14.571-1.672-2.242-3.792-1.443-2.731.835.789,1.693,2.854,4.341,7.043,7.437,2.368,1.749,1.095,3.139-1.151,1.936-3.022-1.619-13.588-9.948-14.658-22.294-1.177-13.58,6.784-19.775,13.64-21.216,1.5-.316,1.385-.724,1.327-1.43a6.817,6.817,0,0,1,4.734-6.879c4.384-1.5,9.752,1.635,8.511,6.057a2.846,2.846,0,0,1-4.149,2.056c-1.617-.885-1.933-3.582.338-3.812Z" fill="#ffe56e" fill-rule="evenodd"/><path d="M607.132,3962.2c-4.156-7.581,0-16.013,1.389-17.9.993-1.345-.4-2.539-1.768-1.182-2.247,2.235-6.35,11.279-2.018,19.88,1.088,2.16,3.5,1.2,2.4-.8Z" fill="#ffe56e" fill-rule="evenodd"/><path d="M621.421,3981.007a53.215,53.215,0,0,0,19.767,5.439c11.536.9,20.438,9.708,21.7,14.747.919,3.677-2.014,4-3.03,1.01-1.523-4.485-8.28-11.47-18.958-13-9.1-1.306-15.27-2.695-20.253-6.07-2.45-1.659-1.7-3.348.778-2.125Z" fill="#ffe56e" fill-rule="evenodd"/><path d="M627.924,3966.85c3.54,4.749,10.326,5.785,15.812,5.569,4-.158,9.9-.157,15.3,2.509,2.566,1.267,4.465-.554,2.211-2.218-2.781-2.053-9.383-3.844-16.477-3.419-7.86.471-12-1.553-14.256-4.332-1.622-1.995-4.3-.413-2.587,1.891Z" fill="#ffe56e" fill-rule="evenodd"/><path d="M612.307,3940.806c1.977-1.028.584-2.308-.717-1.566-.838.478-1.1,1.1-.932,1.486s.767.539,1.649.08Z" fill="#ffe56e" fill-rule="evenodd"/><path d="M643.5,3978.135c3.069.344,2.816-2.225.023-2.24-1.4-.008-1.817.506-1.681,1.044a1.94,1.94,0,0,0,1.658,1.2Z" fill="#ffe56e" fill-rule="evenodd"/><path d="M634.369,3962.707a8.282,8.282,0,0,0,6.4,1.933c2.039-.326,2.265-2.04.626-2.081s-3.4.393-5.468-1.514-3.737-.407-1.555,1.662Z" fill="#ffe56e" fill-rule="evenodd"/><path d="M650.511,3979.456c6.513,1.254,11.981,4.645,14.528,8.042,1.521,2.029,4.2.771,1.882-2.541-2.961-4.227-9.187-7.229-15.815-7.7-2.568-.184-2.44,1.848-.6,2.2Z" fill="#ffe56e" fill-rule="evenodd"/><path d="M663.124,3963.347a16.448,16.448,0,0,0-9.605-4.016c-4.222-.417-9.586,1.792-12.561.7-3.019-1.114-1.191-3.349.7-2.755,3.42,1.071,6.924-1.092,12.341-.442,4.683.562,8.74,2.446,10.414,4.411,1.794,2.107.248,3.6-1.291,2.106Z" fill="#ffe56e" fill-rule="evenodd"/><path d="M646.2,3965.345a26.236,26.236,0,0,1,14.134,2.99c1.868.953,3.606-.568,1.347-2.31-4.5-3.468-11.9-4.324-14.905-3.514-2.9.78-2.548,3.011-.576,2.834Z" fill="#ffe56e" fill-rule="evenodd"/><path d="M871.263,4009.1c-7.654,1.476-16.59-.887-19.557-2.324-2.288-1.109-2.348,1.486-1.059,2.076,7.74,3.546,16.561,3.609,20.213,2.765,2.732-.632,2.1-2.844.4-2.517Z" fill="#ffe56e" fill-rule="evenodd"/><path d="M833.971,3998.11a66.569,66.569,0,0,0,12.381,6.4c2.234.684.912,2.683-1.048,2.311s-10.876-4.876-12.461-6.348.179-3.078,1.128-2.366Z" fill="#ffe56e" fill-rule="evenodd"/><path d="M863.558,4005.812a14.384,14.384,0,0,0,6.53.332c2.159-.56,1.705-2.335.016-2.041a24.663,24.663,0,0,1-6.005-.078c-1.7-.264-2.11,1.323-.541,1.787Z" fill="#ffe56e" fill-rule="evenodd"/><path d="M844.283,3999.926c3.929,2.848,10.23,5.108,13.547,5.372,2.23.178,2.723-1.9.66-2.313a38.779,38.779,0,0,1-13.482-5.11c-1.266-.627-2.177,1-.725,2.051Z" fill="#ffe56e" fill-rule="evenodd"/><path d="M854,3997.881c5.977,2.664,12.673,3.742,14.758,3.68,2.75-.081,2.127-2.746.12-2.7-2.9.067-7.687-.875-13.961-3.106-1.981-.7-3.051,1.175-.917,2.126Z" fill="#ffe56e" fill-rule="evenodd"/><path d="M791.966,3962.691c-1.657-2.986,5.018-4.736,4.391.438-.232,1.916-2.869,4.044-5.884,3.222-3.644-.994-6.757-5.458-3.807-9.331,4.889-6.416,12.146-2,15.616-4.132,5.216-3.212,3.188-8.882-.7-8.87a3.436,3.436,0,0,0-3.483,4.241c.376,1.12,1.313.69,1.271-.155-.122-2.454,4.722-1.514,2.69,2.006a3.81,3.81,0,0,1-5.523.813c-2.039-2-2.366-6.417.744-8.52,6.322-4.271,9.766.876,16.038,1.236,10.817.621,14.6-4.773,14.535-12.585-.031-3.819-2.142-9.878-8.169-9.457-3.928.274-6.164,4.8-2.63,7,2.258,1.4,3.877-.347,2.217-.794a1.635,1.635,0,0,1,.178-3.142,3.358,3.358,0,0,1,3.8,1.344c.79,1.466.829,5.157-3.764,5.835-2,.3-4.174-.86-7.057-.569-2.749.276-5.14,3.555-2.943,5.783,1.806,1.832,3.388.611,2.538-.02s-.692-2.6,1.368-3.1c2.394-.58,3.7,1.759,2.457,4.077-1.038,1.933-5.213,4.082-9.062.069-3.325-3.467-1.412-8.919,1.128-9.963,1.014-.417,2.031-1.064,1.78-2.146s-.9-6.283,3.769-9.059c7.063-4.2,12.047,1.587,15.955-2.384,3.329-3.383,1.033-8.112-2.7-7.646-1.3.162-1.709,1.819-.08,1.916,1.99.118,2.317,2.511.648,3.749s-4.676,1.286-5.728-2.459c-.995-3.54,3.254-7.518,8-6.324,6.992,1.757,5.193,8.708,8.879,12.012,3.05,2.735,5.765-.093,5.823-2.679.026-1.18-1.407-1.877-1.607-.041-.251,2.3-3.621,1.848-4.151-.512-.566-2.517,2.033-5.726,6.062-4.01,3.682,1.568,4.069,6.345.023,10.131-4.37,4.09-4.757,6.536-4.591,9.687.118,2.256-1.175,1.982-1.449,1.021s-.645-4.081-1.909-5.719-2.612-.779-1.707.618c3.844,5.928-.292,11.714,1.759,17.918s8.789,5.832,10.112,1.521c.943-3.072-.835-4.742-2.463-5.263s-2.373.962-1.18,1.637c2.349,1.328,0,4.832-2.637,2.4-2.144-1.973.1-6.951,4.09-6.642,7.868.611,7.551,8.558,10.54,16.581,3.48,9.342,13.809,18.462,19.734,20.43,2.809.934,1.774,2.935-.953,2.3-9.693-2.27-20.335-15.7-21.427-18.794-.723-2.05-3.661-2.152-2.418.933,2.869,7.114,10.883,14.776,15.668,17.287,1.888.99,1.566,3.649-1.573,2.423-1.752-.684-6.516-3.221-7.75-4.585s-3.639.246-1.836,2.056a27.126,27.126,0,0,0,13.673,7.171c2.324.349,2.064,3.054-.666,2.7-11.348-1.479-23.535-12.718-26.816-18.985-.893-1.7-3.058-1.56-2.388,1.179s4.74,8.893,11.658,13.472c2.581,1.708.231,2.95-1.787,1.723-10.891-6.617-16.494-18.7-16.965-22.277-.341-2.591-3.508-1.681-2.91.8,5.562,23.114,32.845,32.222,40.359,33.106,3.066.36,2.59,2.58.255,2.455-13.677-.735-28.279-9.719-30.927-12.406-2.33-2.365-4.283-.361-2.1,1.765s8.963,6.763,12.977,8.264c2.553.955,1.144,2.578-.865,2.052-6.643-1.742-19.149-11.024-21.7-14.024s-4.77-1.317-2.991,1.068,11.536,9.935,16.47,12.388c2.546,1.265,1.053,3.165-1.417,2.121-8.634-3.653-19.184-12.649-20.7-14.97s-3.685-.926-2.135,1.556c2.425,3.883,8.631,8.167,11.219,9.987,2.99,2.1.845,3.673-1.484,2.511a40.764,40.764,0,0,1-19.684-23.171c-3.525-10.514-7.543-16.8-12.436-16.139-3.408.463-5.186,3.71-2.974,6.225.835.95,2.146.464,1.692-.354Z" fill="#ffe56e" fill-rule="evenodd"/><path d="M855.84,3983.426c6.634,3.793,9.61,4.048,12.928,4.212,1.837.09,2.018,2.484-.4,2.632s-9.15-1.623-13.626-5.073c-2.05-1.58-.815-2.862,1.093-1.771Z" fill="#ffe56e" fill-rule="evenodd"/><path d="M811.826,3978c-1.4-1.641.144-3.248,1.576-1.648a1.348,1.348,0,0,1,.115,1.859,1.08,1.08,0,0,1-1.691-.211Z" fill="#ffe56e" fill-rule="evenodd"/><path d="M832.733,3978.487a11.933,11.933,0,0,1-4.487-6.264,1.374,1.374,0,1,0-2.623.785c.487,2.186,3.373,5.712,5.411,6.88s2.917-.509,1.7-1.4Z" fill="#ffe56e" fill-rule="evenodd"/><path d="M871.465,3979.622c3.457,1.076,4.825-1.387,1.485-2.088-1.67-.351-2.509.026-2.7.562s.276,1.234,1.211,1.526Z" fill="#ffe56e" fill-rule="evenodd"/><path d="M844.139,3952.455c1.568,7.831,5.572,13.393,7.291,14.978,2.043,1.885-.086,3.366-1.453,2.164a28.82,28.82,0,0,1-8.583-15.863c-.454-3.084,2.288-3.559,2.745-1.279Z" fill="#ffe56e" fill-rule="evenodd"/><path d="M837.845,3959.753a28.51,28.51,0,0,1-1.416-10.8c.122-2.319-2.294-1.888-2.583.315a21.816,21.816,0,0,0,1.74,11.123c.9,1.854,2.669.584,2.259-.634Z" fill="#ffe56e" fill-rule="evenodd"/><path d="M847.8,3951.759c-.7-2.051,1.285-3.05,2.033-1.028a1.409,1.409,0,0,1-.554,1.814c-.512.263-1.178.093-1.479-.786Z" fill="#ffe56e" fill-rule="evenodd"/><path d="M832.1,3938.83c-.419,2.178-2.6,2.115-2.233-.06a1.466,1.466,0,0,1,1.368-1.36c.564.012,1.045.486.865,1.42Z" fill="#ffe56e" fill-rule="evenodd"/><path d="M830.938,3932.074c.82-5.925-2.254-9.047-3.289-9.978s-.828-2.216.47-1.6c1.92.909,6.257,5.435,4.772,11.227-.643,2.5-2.112,1.5-1.953.353Z" fill="#ffe56e" fill-rule="evenodd"/><path d="M840.851,3931.982c1.4,2.2-.568,3.138-1.245,1.037-.262-.812-.113-1.327.183-1.511s.738-.038,1.062.474Z" fill="#ffe56e" fill-rule="evenodd"/><path d="M843.361,3932.344c-1.317-2.461-1.088-6.7.069-8.946.845-1.637,1.944-1.469,1.473.421-.6,2.4-.81,5.931.571,8.044,1.181,1.811-1.219,2.151-2.113.481Z" fill="#ffe56e" fill-rule="evenodd"/><path d="M848.042,3932.445c-3.328-5.629-.57-14.792,4.882-19.3,4-3.31,9.517-2.743,10.862,0,1.5,3.062-.456,5.7-2.856,5.723-2.145.023-3.42-1.666-2.9-2.991a1.931,1.931,0,0,1,2.758-1.045c.592.56,1.623-.092.92-1.129-.378-.557-1.491-1.506-3.611-.742a3.533,3.533,0,0,0-1.553,5.618c1.324,1.557,1.159,2.186-.355,2.956a6.739,6.739,0,0,0-3.733,5.293c-.091,1.469-1.528,1.2-1.626-.161s1.028-3.879,2.458-5.335c1.225-1.247.215-2.33-1.03-1.167a10.489,10.489,0,0,0-2.726,11.5c.735,1.73-.906,1.775-1.489.789Z" fill="#ffe56e" fill-rule="evenodd"/><path d="M172.285,3980.62c-7.4,3.962-17.334,4.386-20.842,3.856-2.706-.409-1.939,2.278-.426,2.473,9.087,1.172,18.175-1.579,21.658-3.613,2.606-1.522,1.249-3.594-.39-2.716Z" fill="#ffe56e" fill-rule="evenodd"/><path d="M130.448,3981.233a71.661,71.661,0,0,0,14.769,2.627c2.515-.01,1.794,2.466-.338,2.709s-12.736-1.538-14.835-2.544-.8-3.221.4-2.792Z" fill="#ffe56e" fill-rule="evenodd"/><path d="M163.316,3979.7a15.472,15.472,0,0,0,6.817-1.744c2.04-1.266,1.007-2.944-.635-2.1a26.581,26.581,0,0,1-6.2,1.837c-1.831.272-1.747,2.034.014,2.01Z" fill="#ffe56e" fill-rule="evenodd"/><path d="M141.626,3979.806c4.947,1.673,12.145,1.983,15.638,1.2,2.349-.529,2.194-2.819-.059-2.587a41.78,41.78,0,0,1-15.489-.947c-1.5-.24-1.918,1.72-.09,2.339Z" fill="#ffe56e" fill-rule="evenodd"/><path d="M150.958,3974.6c7,.83,14.221-.2,16.344-.93,2.8-.961,1.31-3.5-.739-2.813-2.961,1-8.18,1.555-15.341,1.266-2.261-.092-2.76,2.182-.264,2.477Z" fill="#ffe56e" fill-rule="evenodd"/><path d="M75.966,3958.243c-2.657-2.54,3.644-6.47,4.652-.952.374,2.044-1.657,5.073-5.018,5.19-4.063.142-8.688-3.451-6.892-8.374,2.975-8.155,11.845-5.929,14.73-9.234,4.334-4.966.44-10.146-3.547-8.894a3.7,3.7,0,0,0-2.225,5.471c.743,1.031,1.569.29,1.256-.565-.909-2.483,4.37-3.064,3.405,1.2-.46,2.035-3.342,3.664-5.416,2.6-2.734-1.4-4.481-5.839-1.956-8.993,5.134-6.409,10.316-2.219,16.878-3.852,11.316-2.815,13.481-9.567,10.92-17.576-1.251-3.915-5.356-9.468-11.416-7.111-3.949,1.537-4.8,6.906-.469,8.03,2.768.719,3.874-1.594,2.025-1.523a1.76,1.76,0,0,1-.821-3.287,3.614,3.614,0,0,1,4.332.169c1.28,1.255,2.5,5.035-2,7.2-1.965.945-4.565.45-7.435,1.669-2.737,1.162-4.147,5.3-1.178,6.884,2.441,1.306,3.677-.454,2.6-.831s-1.541-2.451.416-3.621c2.275-1.361,4.366.625,3.827,3.405-.449,2.318-4.054,5.861-9.291,2.965-4.525-2.5-4.3-8.716-2.022-10.6.908-.752,1.747-1.742,1.144-2.774s-2.934-6.17.98-10.515c5.919-6.57,12.889-2.216,15.637-7.544,2.341-4.54-1.528-8.668-5.212-7-1.285.583-1.175,2.417.53,2,2.084-.515,3.184,1.841,1.864,3.645s-4.4,2.816-6.673-.7c-2.152-3.321.944-8.766,6.205-9.056,7.747-.426,8.119,7.293,12.961,9.511,4.009,1.837,5.9-1.936,5.13-4.612-.35-1.222-2.046-1.48-1.665.47.476,2.44-3.132,3.056-4.43.8-1.385-2.406.261-6.534,4.95-6.057,4.285.436,6.208,5.222,3.259,10.405-3.185,5.6-2.8,8.237-1.625,11.423.842,2.28-.575,2.412-1.163,1.511s-1.966-3.988-3.788-5.268-2.934.034-1.558,1.18c5.844,4.866,3.441,12.133,7.53,17.854s10.9,3.188,10.878-1.665c-.012-3.459-2.372-4.607-4.212-4.623s-2.131,1.747-.69,2.059c2.839.615,1.543,4.966-1.942,3.314-2.834-1.344-2.114-7.178,2.082-8.133,8.282-1.885,10.494,6.384,16.128,13.676,6.56,8.49,20.088,14.565,26.806,14.7,3.185.062,2.76,2.449-.247,2.663-10.686.762-25.914-9.645-28.023-12.474-1.4-1.875-4.45-1.042-2.187,1.732,5.22,6.4,15.9,11.711,21.623,12.763,2.257.416,2.775,3.251-.843,2.993-2.018-.144-7.725-1.229-9.429-2.237s-3.662,1.414-1.23,2.7a29.2,29.2,0,0,0,16.342,3.005c2.5-.384,3.1,2.479.177,2.985-12.136,2.1-28.249-5.556-33.623-10.949-1.461-1.465-3.641-.627-2.078,1.974s7.711,7.626,16.284,10.123c3.2.932,1.18,2.958-1.286,2.342-13.307-3.324-22.925-13.954-24.55-17.479-1.178-2.554-4.142-.607-2.735,1.756,13.1,21.98,44.047,22.629,52.052,21.138,3.266-.609,3.486,1.825,1.046,2.441-14.292,3.613-32.168-.958-35.747-2.874-3.15-1.686-4.518,1-1.6,2.484s11.371,4.089,15.976,4.35c2.929.167,2,2.285-.233,2.386-7.384.331-23.2-5.216-26.781-7.485s-5.322.169-2.733,2.053,15.03,6.527,20.884,7.472c3.02.488,2.092,2.917-.779,2.632-10.041-1-23.756-6.873-26.055-8.775s-4.083.225-1.7,2.281c3.733,3.217,11.478,5.638,14.72,6.682,3.745,1.207,2.041,3.506-.723,3.055a43.877,43.877,0,0,1-27.631-17.529c-6.98-9.68-13.119-14.863-17.935-12.616-3.354,1.564-4.145,5.468-1.069,7.347,1.162.71,2.354-.208,1.627-.9Z" fill="#ffe56e" fill-rule="evenodd"/><path d="M148.235,3959.158c8.03,1.779,11.17,1.091,14.633.2,1.916-.494,2.866,1.909.434,2.831s-9.922,1.254-15.624-.863c-2.612-.969-1.753-2.681.557-2.168Z" fill="#ffe56e" fill-rule="evenodd"/><path d="M101.266,3967.637c-1.961-1.24-.89-3.384,1.093-2.2a1.45,1.45,0,0,1,.712,1.873,1.163,1.163,0,0,1-1.805.324Z" fill="#ffe56e" fill-rule="evenodd"/><path d="M122.909,3961.459a12.831,12.831,0,0,1-6.612-5,1.478,1.478,0,1,0-2.445,1.644c1.2,2.091,5.29,4.794,7.758,5.344s2.835-1.455,1.3-1.984Z" fill="#ffe56e" fill-rule="evenodd"/><path d="M163.08,3950.258c3.9,0,4.516-2.966.859-2.621-1.828.174-2.57.828-2.591,1.44s.678,1.18,1.732,1.181Z" fill="#ffe56e" fill-rule="evenodd"/><path d="M126.319,3931.062c4.112,7.549,10,11.986,12.276,13.066,2.7,1.285.987,3.488-.8,2.688a31.011,31.011,0,0,1-13.886-13.563c-1.452-3.024,1.214-4.388,2.412-2.191Z" fill="#ffe56e" fill-rule="evenodd"/><path d="M122.181,3940.573a30.65,30.65,0,0,1-4.9-10.652c-.616-2.423-2.961-1.208-2.555,1.148a23.481,23.481,0,0,0,5.341,10.877c1.514,1.618,2.929-.252,2.119-1.373Z" fill="#ffe56e" fill-rule="evenodd"/><path d="M129.864,3929.176c-1.377-1.883.347-3.545,1.762-1.705a1.516,1.516,0,0,1,.01,2.04c-.442.435-1.181.472-1.772-.335Z" fill="#ffe56e" fill-rule="evenodd"/><path d="M109.6,3920.9c.264,2.373-2,3-2.315.651a1.578,1.578,0,0,1,.972-1.834c.584-.169,1.23.165,1.343,1.183Z" fill="#ffe56e" fill-rule="evenodd"/><path d="M106.243,3914.331c-1.05-6.352-5.206-8.578-6.567-9.205s-1.559-2.013-.028-1.8c2.263.32,8.166,3.587,8.489,10.014.14,2.779-1.691,2.217-1.894.987Z" fill="#ffe56e" fill-rule="evenodd"/><path d="M116.4,3911.07c2.139,1.819.418,3.408-.949,1.464-.528-.751-.539-1.328-.294-1.612s.746-.275,1.243.148Z" fill="#ffe56e" fill-rule="evenodd"/><path d="M119.1,3910.641c-2.14-2.108-3.259-6.541-2.786-9.216.345-1.953,1.529-2.131,1.648-.038.152,2.661,1.062,6.354,3.155,8.085,1.792,1.484-.565,2.6-2.017,1.169Z" fill="#ffe56e" fill-rule="evenodd"/><path d="M123.94,3909.25c-5.217-4.722-5.308-15.02-1.146-21.4,3.056-4.68,8.906-5.859,11.163-3.473,2.522,2.668,1.351,6-1.108,6.794-2.2.709-4.046-.62-3.937-2.148s1.714-2.342,2.5-1.955,1.64-.612.585-1.453c-.566-.452-2.013-1.072-3.948.39a3.8,3.8,0,0,0,.2,6.27c1.859,1.178,1.89,1.877.579,3.152a7.254,7.254,0,0,0-2.147,6.631c.376,1.54-1.186,1.725-1.722.355s-.182-4.316.823-6.269c.861-1.673-.523-2.463-1.432-.87a11.292,11.292,0,0,0,.87,12.687c1.308,1.543-.364,2.113-1.279,1.286Z" fill="#ffe56e" fill-rule="evenodd"/><path d="M606.5,3989.49c-5.729,5.286-14.571,7.983-17.85,8.323-2.529.262-1.213,2.5.193,2.324,8.447-1.063,15.98-5.654,18.639-8.294,1.99-1.976.287-3.524-.982-2.353Z" fill="#ffe56e" fill-rule="evenodd"/><path d="M569.009,3999.785a66.562,66.562,0,0,0,13.9-1.077c2.26-.594,2.188,1.8.327,2.516s-11.814,1.583-13.937,1.166-1.468-2.71-.286-2.6Z" fill="#ffe56e" fill-rule="evenodd"/><path d="M598.217,3990.753a14.4,14.4,0,0,0,5.726-3.157c1.54-1.614.22-2.883-1.062-1.744a24.673,24.673,0,0,1-5.145,3.1c-1.584.671-1.1,2.236.481,1.8Z" fill="#ffe56e" fill-rule="evenodd"/><path d="M578.732,3995.9c4.839.353,11.385-1.044,14.344-2.567,1.99-1.023,1.316-3.046-.656-2.313a38.777,38.777,0,0,1-14.153,2.755c-1.406.134-1.324,2,.465,2.125Z" fill="#ffe56e" fill-rule="evenodd"/><path d="M585.913,3989.043c6.485-.882,12.745-3.492,14.485-4.643,2.295-1.517.362-3.455-1.32-2.358-2.432,1.585-7,3.3-13.5,4.712-2.055.444-1.975,2.6.339,2.289Z" fill="#ffe56e" fill-rule="evenodd"/><path d="M514.648,3991.794c-2.981-1.666,1.771-6.669,3.964-1.94.811,1.751-.31,4.949-3.306,5.838-3.622,1.073-8.619-1.082-8.15-5.928.777-8.028,9.275-8.092,11.1-11.736,2.743-5.477-1.966-9.229-5.261-7.174a3.436,3.436,0,0,0-.728,5.439c.91.754,1.479-.1,1-.8-1.4-2.022,3.217-3.774,3.343.288a3.809,3.809,0,0,1-4.267,3.6c-2.786-.626-5.391-4.209-3.853-7.634,3.124-6.961,8.762-4.4,14.284-7.4,9.523-5.168,9.9-11.745,5.73-18.352-2.038-3.23-7.023-7.27-11.926-3.738-3.194,2.3-2.709,7.33,1.449,7.332,2.657,0,3.113-2.336,1.466-1.842a1.635,1.635,0,0,1-1.5-2.765,3.36,3.36,0,0,1,3.936-.857c1.443.831,3.42,3.948-.127,6.943-1.548,1.307-4,1.467-6.3,3.232-2.192,1.683-2.5,5.729.543,6.467,2.5.606,3.2-1.265,2.148-1.354s-1.957-1.845-.469-3.354c1.73-1.754,4.073-.454,4.235,2.171.136,2.191-2.282,6.217-7.667,4.831-4.652-1.2-5.9-6.838-4.287-9.064.642-.887,1.166-1.973.383-2.761s-4.075-4.867-1.567-9.686c3.794-7.289,11.078-4.995,12.309-10.428,1.048-4.629-3.394-7.441-6.318-5.081-1.021.823-.495,2.447.941,1.671,1.754-.948,3.293.914,2.525,2.845s-3.3,3.556-6.164.927c-2.71-2.486-1.193-8.1,3.472-9.591,6.87-2.188,9,4.669,13.874,5.537,4.033.719,4.852-3.115,3.539-5.344-.6-1.017-2.184-.855-1.388.811,1,2.084-2.1,3.478-3.8,1.751-1.806-1.842-1.287-5.938,3.042-6.6,3.956-.606,6.8,3.252,5.355,8.6-1.562,5.778-.6,8.061,1.2,10.653,1.288,1.855.045,2.3-.694,1.63s-2.7-3.13-4.635-3.856-2.631.713-1.126,1.424c6.39,3.016,5.92,10.112,10.931,14.306s10.543.33,9.4-4.031c-.817-3.108-3.207-3.592-4.866-3.178s-1.51,2.068-.141,2.013c2.7-.108,2.545,4.108-.976,3.433-2.861-.548-3.572-5.964-.02-7.8,7.01-3.623,10.926,3.3,17.691,8.546,7.878,6.109,21.462,8.423,27.535,6.976,2.88-.685,3.053,1.561.4,2.454-9.435,3.174-25.555-2.641-28.111-4.7-1.7-1.361-4.246.1-1.564,2.067,6.185,4.538,17.032,6.831,22.421,6.446,2.128-.153,3.254,2.277-.061,2.888-1.849.341-7.234.693-9,.183s-2.964,2.125-.478,2.715a27.13,27.13,0,0,0,15.4-1.1c2.159-.927,3.362,1.51.854,2.644-10.426,4.719-26.7,1.582-32.794-2.018-1.655-.977-3.421.284-1.409,2.26s8.712,5.064,17,5.313c3.094.094,1.75,2.386-.612,2.407-12.743.109-23.87-7.214-26.153-10-1.654-2.023-3.867.418-2.051,2.216,16.9,16.721,44.89,10.1,51.743,6.891,2.8-1.308,3.561.829,1.51,1.953-12.014,6.577-29.158,6.629-32.824,5.739-3.226-.783-3.831,1.948-.856,2.606s11.181,1.03,15.384.192c2.673-.532,2.33,1.59.345,2.2-6.565,2.018-22.085.712-25.832-.495s-4.748,1.392-1.98,2.483,15.039,2.371,20.525,1.858c2.83-.265,2.562,2.136-.088,2.548-9.264,1.442-22.969-.65-25.48-1.825s-3.62,1.154-1,2.447c4.107,2.024,11.638,2.4,14.8,2.583,3.65.213,2.653,2.678.062,2.916a40.772,40.772,0,0,1-28.936-9.333c-8.534-7.081-15.262-10.314-19.071-7.171-2.653,2.188-2.455,5.885.75,6.858,1.21.368,2.068-.736,1.252-1.192Z" fill="#ffe56e" fill-rule="evenodd"/><path d="M579.867,3975.786c7.638-.269,10.3-1.62,13.209-3.228,1.608-.89,3.023,1.05,1.05,2.445s-8.633,3.439-14.255,2.864c-2.575-.264-2.2-2,0-2.081Z" fill="#ffe56e" fill-rule="evenodd"/><path d="M539.593,3994.351c-2.053-.658-1.588-2.836.472-2.231a1.349,1.349,0,0,1,1.077,1.52c-.115.564-.668.994-1.549.711Z" fill="#ffe56e" fill-rule="evenodd"/><path d="M557.623,3983.754a11.933,11.933,0,0,1-7.114-2.961,1.373,1.373,0,1,0-1.815,2.048c1.565,1.6,5.874,3.08,8.222,3s2.211-1.969.707-2.087Z" fill="#ffe56e" fill-rule="evenodd"/><path d="M591.147,3964.323c3.506-.906,3.372-3.719.163-2.557-1.6.582-2.119,1.344-2,1.9s.885.9,1.833.659Z" fill="#ffe56e" fill-rule="evenodd"/><path d="M553.61,3955.618c5.457,5.832,11.791,8.452,14.086,8.894,2.73.527,1.7,2.907-.1,2.6a28.821,28.821,0,0,1-15.649-8.966c-2.01-2.383.071-4.23,1.659-2.533Z" fill="#ffe56e" fill-rule="evenodd"/><path d="M552.1,3965.137a28.515,28.515,0,0,1-6.893-8.439c-1.117-2.036-2.944-.4-2.03,1.628a21.808,21.808,0,0,0,7.337,8.539c1.739,1.1,2.577-.909,1.586-1.728Z" fill="#ffe56e" fill-rule="evenodd"/><path d="M556.361,3953.1c-1.678-1.373-.514-3.269,1.187-1.944a1.408,1.408,0,0,1,.484,1.833c-.3.494-.953.7-1.671.111Z" fill="#ffe56e" fill-rule="evenodd"/><path d="M536.2,3950.374c.79,2.073-1.1,3.168-1.931,1.125a1.465,1.465,0,0,1,.447-1.876c.486-.287,1.145-.137,1.484.751Z" fill="#ffe56e" fill-rule="evenodd"/><path d="M531.656,3945.244c-2.423-5.469-6.68-6.5-8.051-6.75s-1.871-1.448-.443-1.61c2.11-.239,8.181,1.326,9.968,7.031.773,2.467-1.005,2.388-1.474,1.329Z" fill="#ffe56e" fill-rule="evenodd"/><path d="M540.034,3939.945c2.348,1.138,1.17,2.967-.512,1.537-.65-.552-.795-1.069-.64-1.381s.607-.421,1.152-.156Z" fill="#ffe56e" fill-rule="evenodd"/><path d="M542.359,3938.931c-2.415-1.4-4.454-5.125-4.652-7.641-.144-1.837.879-2.273,1.474-.418.756,2.358,2.435,5.468,4.721,6.538,1.957.917.1,2.47-1.543,1.521Z" fill="#ffe56e" fill-rule="evenodd"/><path d="M546.391,3936.552c-5.793-3.032-8.273-12.274-6.014-18.979,1.659-4.922,6.647-7.345,9.232-5.724,2.89,1.812,2.613,5.083.586,6.369-1.811,1.15-3.784.385-4.041-1.015s1-2.506,1.794-2.341,1.332-.932.188-1.444c-.615-.274-2.06-.495-3.461,1.271a3.534,3.534,0,0,0,1.638,5.594c1.947.626,2.137,1.248,1.255,2.7a6.739,6.739,0,0,0-.386,6.465c.7,1.3-.665,1.827-1.467.72s-1.168-3.84-.72-5.83c.385-1.706-1.044-2.095-1.49-.45a10.493,10.493,0,0,0,3.737,11.21c1.536,1.082.165,1.985-.851,1.454Z" fill="#ffe56e" fill-rule="evenodd"/><path d="M420.667,4007.356c-7.442,2.318-16.586.963-19.694-.136-2.4-.848-2.168,1.738-.822,2.181,8.086,2.663,16.86,1.746,20.395.5,2.645-.932,1.77-3.061.121-2.547Z" fill="#ffe56e" fill-rule="evenodd"/><path d="M382.385,4000.578a66.484,66.484,0,0,0,13.016,4.987c2.3.432,1.2,2.565-.785,2.413s-11.35-3.636-13.089-4.923-.165-3.079.858-2.477Z" fill="#ffe56e" fill-rule="evenodd"/><path d="M412.644,4004.944a14.383,14.383,0,0,0,6.527-.4c2.083-.8,1.435-2.509-.211-2.03a24.719,24.719,0,0,1-5.976.59c-1.718-.073-1.95,1.549-.34,1.836Z" fill="#ffe56e" fill-rule="evenodd"/><path d="M392.835,4001.237c4.221,2.394,10.734,3.939,14.059,3.833,2.237-.071,2.5-2.188.4-2.372a38.8,38.8,0,0,1-13.967-3.58c-1.328-.482-2.052,1.234-.492,2.119Z" fill="#ffe56e" fill-rule="evenodd"/><path d="M402.263,3998.124c6.236,1.984,13.011,2.311,15.076,2.018,2.724-.387,1.809-2.966-.181-2.7-2.876.389-7.737-.015-14.22-1.535-2.047-.48-2.9,1.507-.675,2.214Z" fill="#ffe56e" fill-rule="evenodd"/><path d="M336.7,3970.047c-1.979-2.784,4.46-5.265,4.412-.053-.017,1.93-2.4,4.338-5.489,3.856-3.732-.583-7.323-4.673-4.82-8.85,4.145-6.919,11.848-3.333,15.059-5.843,4.827-3.771,2.182-9.18-1.676-8.737a3.436,3.436,0,0,0-2.99,4.6c.5,1.071,1.381.54,1.245-.3-.393-2.425,4.525-2.029,2.9,1.695a3.809,3.809,0,0,1-5.4,1.421c-2.249-1.76-3.065-6.114-.208-8.548,5.808-4.948,9.8-.216,16.076-.555,10.819-.585,13.979-6.366,13.047-14.123-.456-3.791-3.227-9.578-9.17-8.49-3.873.709-5.592,5.46-1.836,7.245,2.4,1.141,3.814-.776,2.114-1.036a1.634,1.634,0,0,1-.172-3.142,3.357,3.357,0,0,1,3.923.914c.948,1.369,1.4,5.032-3.092,6.217-1.958.517-4.244-.391-7.077.219-2.7.58-4.712,4.1-2.282,6.074,2,1.621,3.435.231,2.521-.3s-.977-2.507,1.015-3.232c2.314-.842,3.874,1.337,2.895,3.779-.817,2.036-4.728,4.636-9,1.076-3.69-3.076-2.4-8.707.013-10.027.961-.527,1.9-1.283,1.531-2.33s-1.6-6.145,2.738-9.423c6.553-4.957,12.149.239,15.592-4.142,2.932-3.731.125-8.176-3.529-7.3-1.275.306-1.5,2,.134,1.913,1.991-.1,2.582,2.238,1.061,3.654s-4.5,1.8-5.966-1.807c-1.382-3.407,2.4-7.833,7.249-7.175,7.144.97,6.129,8.078,10.159,10.952,3.336,2.379,5.719-.734,5.489-3.31-.1-1.175-1.606-1.709-1.6.138.006,2.31-3.394,2.239-4.183-.048-.841-2.438,1.385-5.916,5.58-4.659,3.833,1.149,4.748,5.854,1.149,10.066-3.889,4.551-4,7.024-3.487,10.138.369,2.228-.947,2.1-1.326,1.175s-1.094-3.984-2.533-5.472-2.682-.483-1.627.8c4.478,5.465,1.011,11.674,3.739,17.612s9.382,4.819,10.218.388c.6-3.158-1.357-4.62-3.032-4.957s-2.252,1.22-.991,1.758c2.482,1.059.537,4.8-2.354,2.683-2.35-1.723-.669-6.92,3.327-7.056,7.887-.267,8.455,7.666,12.317,15.307,4.5,8.9,15.776,16.813,21.883,18.11,2.895.616,2.089,2.719-.693,2.388-9.884-1.179-21.954-13.345-23.382-16.3-.947-1.956-3.878-1.731-2.3,1.2,3.641,6.751,12.457,13.475,17.491,15.438,1.987.775,1.962,3.453-1.294,2.582-1.816-.484-6.833-2.476-8.211-3.694s-3.589.648-1.6,2.247a27.125,27.125,0,0,0,14.385,5.607c2.348.089,2.39,2.806-.362,2.755-11.442-.209-24.8-10.023-28.76-15.887-1.076-1.593-3.212-1.21-2.242,1.437s5.7,8.311,13.083,12.093c2.755,1.411.558,2.906-1.584,1.911-11.559-5.366-18.471-16.753-19.336-20.254-.627-2.537-3.673-1.28-2.8,1.123,8.1,22.353,36.223,28.372,43.788,28.415,3.088.018,2.861,2.277.527,2.412-13.674.789-29.184-6.516-32.114-8.892-2.579-2.091-4.3.117-1.891,1.987s9.659,5.725,13.815,6.771c2.643.665,1.423,2.435-.632,2.135-6.8-.992-20.256-8.827-23.123-11.525s-4.886-.779-2.854,1.394,12.57,8.591,17.745,10.48c2.671.975,1.4,3.029-1.172,2.265-8.987-2.67-20.471-10.438-22.235-12.576s-3.766-.51-1.949,1.784c2.841,3.589,9.484,7.157,12.259,8.678,3.2,1.758,1.247,3.557-1.2,2.661a40.769,40.769,0,0,1-22.137-20.84c-4.672-10.057-9.364-15.863-14.153-14.657-3.335.839-4.741,4.263-2.264,6.517.936.851,2.185.222,1.643-.54Z" fill="#ffe56e" fill-rule="evenodd"/><path d="M402.486,3983.555c7.015,3.032,10,2.955,13.317,2.748,1.835-.114,2.281,2.245-.1,2.66s-9.273-.6-14.105-3.527c-2.213-1.343-1.129-2.754.889-1.881Z" fill="#ffe56e" fill-rule="evenodd"/><path d="M358.142,3983.055c-1.572-1.476-.218-3.244,1.383-1.813a1.348,1.348,0,0,1,.321,1.834,1.081,1.081,0,0,1-1.7-.021Z" fill="#ffe56e" fill-rule="evenodd"/><path d="M378.974,3981.214a11.937,11.937,0,0,1-5.156-5.726,1.374,1.374,0,1,0-2.519,1.072c.727,2.118,3.987,5.3,6.142,6.236s2.842-.831,1.533-1.582Z" fill="#ffe56e" fill-rule="evenodd"/><path d="M417.592,3978.037c3.555.685,4.641-1.914,1.244-2.24-1.7-.162-2.491.3-2.617.859s.411,1.2,1.373,1.381Z" fill="#ffe56e" fill-rule="evenodd"/><path d="M387.416,3954.075c2.428,7.609,7.026,12.692,8.91,14.076,2.24,1.646.289,3.355-1.2,2.312a28.819,28.819,0,0,1-10.292-14.811c-.794-3.015,1.878-3.791,2.586-1.577Z" fill="#ffe56e" fill-rule="evenodd"/><path d="M381.972,3962.028a28.5,28.5,0,0,1-2.608-10.579c-.136-2.319-2.49-1.622-2.532.6a21.8,21.8,0,0,0,2.966,10.861c1.1,1.742,2.717.284,2.174-.881Z" fill="#ffe56e" fill-rule="evenodd"/><path d="M390.982,3952.976c-.927-1.959.938-3.174,1.906-1.247a1.409,1.409,0,0,1-.349,1.864c-.48.319-1.16.223-1.557-.617Z" fill="#ffe56e" fill-rule="evenodd"/><path d="M373.939,3941.873c-.176,2.211-2.35,2.391-2.227.188a1.466,1.466,0,0,1,1.208-1.5c.563-.051,1.094.367,1.019,1.315Z" fill="#ffe56e" fill-rule="evenodd"/><path d="M372.031,3935.288c.157-5.979-3.245-8.74-4.377-9.55s-1.07-2.11.289-1.644c2.009.689,6.822,4.705,5.99,10.626-.36,2.56-1.932,1.726-1.9.568Z" fill="#ffe56e" fill-rule="evenodd"/><path d="M381.873,3934.095c1.632,2.035-.216,3.182-1.123,1.169-.35-.778-.259-1.307.015-1.523s.729-.119,1.108.354Z" fill="#ffe56e" fill-rule="evenodd"/><path d="M384.408,3934.175c-1.583-2.3-1.826-6.539-.926-8.9.658-1.721,1.769-1.677,1.511.255-.328,2.454-.146,5.983,1.461,7.93,1.375,1.668-.972,2.273-2.046.712Z" fill="#ffe56e" fill-rule="evenodd"/><path d="M389.071,3933.756c-3.933-5.224-2.21-14.637,2.706-19.725,3.609-3.734,9.154-3.784,10.794-1.212,1.834,2.877.181,5.713-2.2,6.006-2.13.261-3.584-1.276-3.216-2.651a1.931,1.931,0,0,1,2.625-1.345c.65.492,1.6-.271.788-1.224-.437-.511-1.648-1.33-3.671-.336a3.534,3.534,0,0,0-.919,5.756c1.49,1.4,1.4,2.044-.024,2.977a6.741,6.741,0,0,0-3.122,5.675c.073,1.471-1.384,1.365-1.634.021s.592-3.969,1.851-5.575c1.079-1.376-.045-2.34-1.154-1.045a10.49,10.49,0,0,0-1.431,11.728c.923,1.638-.7,1.865-1.392.95Z" fill="#ffe56e" fill-rule="evenodd"/><path d="M1250.5,3940.6c-1.005-.85-.483-2.411,1.2-2.215,1.487.174,2.836,3.649-.451,4.761-3.62,1.225-9.707-4.909-3.868-10.326s11.2-1.178,12.451-.011a3.137,3.137,0,0,0,3.045.505c1.132-.246,5.692-1.511,10.348,4.6.762,1,1,.8,2.158.839,2.582.087,8.513,1.524,10.3,9.515a2.411,2.411,0,0,0,1.388,1.846c5.652,2.891,12.945,17.114,3.883,31.767-10.224,16.534-28.094,22.054-36.622,22.117-15.139.114-22.1-6.015-27.58-7.075-2.413-.466-2.584-3.168.279-2.779,3.759.512,11.112,5.806,19.918,6.372,2.453.157,3.057-1.866.307-2.29-12.6-1.941-17.5-7.9-26.912-8.647-3.664-.292-3.545-2.867-.026-2.795,8.6.176,15.474,5.97,23.759,7.53,6.153,1.158,10.925,2.343,17.6-1.04a1.241,1.241,0,1,0-1.17-2.181,16.932,16.932,0,0,1-9.947,1.354c-2.429-.409-1.955-2.537-.148-2.277,4.641.667,11.463-1.689,13.858-4.558,2.152-2.579-.4-3.378-1.818-1.894s-9.784,6.967-20.235,2.289c-6.412-2.87-15.185-7.913-22.2-8.289-2.863-.153-3.161-2.994-.248-3.055,4.529-.093,12.586,3.555,22.343,8.271a17.481,17.481,0,0,0,17.006-.454c2.25-1.36.388-3.051-1.237-2.186-3.3,1.754-8.8,2.643-15.353-.189-4.724-2.041-9.5-4.649-14.629-6.465-2.707-.958-2.16-2.988.005-2.5,4.372.976,8.59,3.866,13.563,5.457,1.852.592,2.648-1.138,1.065-1.953-5.951-3.068-13.994-7.594-22.391-8.092-2.621-.155-2.8-2.467-.367-2.657,5.022-.392,14.761,2.915,23.042,7.745,3.525,2.055,7.766,3.568,11.792.393.956-.755,2.81.349,1.41,1.782-1.72,1.761-4.956,2.554-7.584,2.379-2.52-.167-2.289,1.694.189,2.01a12.7,12.7,0,0,0,12.219-6.3c2.134-4.172-.892-9.43-3.91-9.475-3.267-.049-3.683,2.384-2.7,3.537.369.434.843.307.95-.2.27-1.279,2.742-1.38,2.81.942.06,2.026-2.908,2.963-5.154.814-2.4-2.292-1.153-5.355-.7-6.326s.175-2.927-2.18-3.729a2.2,2.2,0,0,0-2.984,2.063.655.655,0,0,0,.99.449,1.308,1.308,0,0,1,1.479,2.12c-1.262,1.481-4.9-.209-4.208-3.8a4.5,4.5,0,0,1,5.543-3.386,7.242,7.242,0,0,1,3.34,2.2c.518.589.795.858,1.207.788a10.005,10.005,0,0,1,9.333,2.507,11.157,11.157,0,0,1,3.406,6.808,2.545,2.545,0,0,0,.675,1.437c2.233,2.385,9.69,2.917,12.08-2.6,2.3-5.311-2.214-8.351-4.209-8.392-1.96-.039-4.06,2.194-1.743,4.039.409.325.809.1.6-.365-.592-1.293,1.693-2.051,2.268-.3.885,2.7-3.257,4.6-5.962,2.265-2.831-2.444-1.323-7.1,1.413-8.553,1.624-.859.673-6.541-3.3-7-4.294-.5-5.443,3.368-3.1,5.328.747.625,1.68.547,1.052-.627-.949-1.771,1.947-3.288,3.041-.652,1.053,2.541-3.262,6.157-6.726,2.212a5.743,5.743,0,0,1,2.058-9.014c1.542-.689.709-6.358-3.118-6.433-4.117-.08-4.379,4-2.179,5.337.75.456,1.347-.045.72-.616-1.45-1.32,1.175-3.342,2.379-.948,1,1.99-1.732,5.34-5.55,3.287-2.884-1.552-3.2-5.471-2.045-6.95.875-1.12-1.4-4-4.427-3.772a4.333,4.333,0,0,0-4.022,4.009,2.7,2.7,0,0,0,2.192,2.606c.593.075.8-.517.338-.906Zm3.614,57.829c-1.759.049-2.244,1.9.774,2.194,2.3.225,9.635-1,13.9-4.332,1.635-1.276.49-3.028-1.02-2.046a24.417,24.417,0,0,1-13.65,4.184Zm12.758-11.18c-1.115,1.047-1.453,2.145-1.143,2.691s1.269.54,2.745-.618c3.512-2.755,1.383-4.874-1.6-2.073Zm-45.725,8.094c1.025-.014,1.61-.6,1.6-1.2s-.608-1.211-1.954-1.266c-2.436-.1-2.644,2.509.351,2.469Zm22.7-3.823c1.464.256,2.446-1.747-.21-2.2-4.021-.678-18.777-12.268-30.8-8.667-2.528.757-1.579,3.424.871,2.949,13.422-2.6,21.289,6.367,30.143,7.914Zm-31.215-13.561c1.176-.361,1.641-1.126,1.419-1.7s-1.13-.956-2.7-.553c-2.841.73-2.153,3.306,1.282,2.253Zm26.728-10.835c-1.33-.465-1.143-2.093.851-1.848,3.7.453,6.817,4.72,10.38,3.3a1.159,1.159,0,1,1,.912,2.131c-3.993,2.015-7.544-1.975-12.143-3.583Zm31.69-.452c-1.68-.472-1.381,1.021.116,1.368,2.486.577,4.465.224,5.537-1.163.925-1.2-.21-1.849-1-.97-.966,1.075-3.2,1.174-4.653.765Zm-49.056,5.794c2.4.573,2.663-1.946.495-2.626-2.865-.9-9.654-1.461-14.29,1.159-2.084,1.178-.954,2.884.862,2.179a22.134,22.134,0,0,1,12.933-.712Zm48.211-8.356c-.6-.038-.876.2-.842.452s.378.54,1.014.6c.863.083,1.13-.971-.172-1.054Zm-22.763,2.084c1.629.163,1.924-1.664.485-1.734-1.646-.079-3.439-1.865-4.973-2.18-1.566-.322-1.5,1.3-.142,1.6.836.185,3.033,2.159,4.63,2.317Zm-33.331.359c1.294-.07,1.305-2.38-1.076-2.422-3.125-.053-6.661.958-8.479,2.387-2.122,1.668-.254,3.291.885,2.433,2.413-1.82,5.873-2.247,8.67-2.4Zm19.629-17.743c-.276-.479-.008-1.4,1.423-.981,2.9.841,3.971,4.747,1.284,6.347-3.006,1.79-6.9,1.5-12.927-3.381-7.539-6.1-14.771-7.425-19.766-5.522-1.82.694-1.261,2.086.23,1.806,1.255-.236,4.165-.97,6.594-.249,1.486.442,1.035,1.714-.111,1.6-8.795-.91-14.588,4.526-15.852,6.776-1.028,1.831.425,2.78,1.5,1.47,8.855-10.793,22.829-4.314,27.846-2.151,1.427.615,1.186,2-.412,1.526-2.153-.641-13.834-6.2-20.077-1.541-1.515,1.132-.725,2.756.965,1.821a13.951,13.951,0,0,1,10.646-.559c2.15.927,1.663,2.233.071,1.776-5.56-1.6-10.592,1.008-11.975,2.843-1.2,1.6.317,2.814,1.565,1.667,5.832-5.364,19.687-.054,24.823.842,6.265,1.092,13.141-2.224,13.621-8.647.552-7.374-7.693-12.154-12.153-9.2-3.565,2.365-2.121,6.313.067,6.878,1.94.5,3.947-.846,2.64-3.119Zm28.186,7.314c-.307.477-.747.586-1.025.412s-.4-.629-.059-1.279c.675-1.3,1.9-.395,1.084.867Zm-3.826-7.221c-.225-1.231,1.463-1.51,1.826.312a13.822,13.822,0,0,1-.686,6.1c-.579,1.308-1.655.658-1.326-.423a14.33,14.33,0,0,0,.186-5.984Zm-29.16,7.379c-1.355-.661-1.945.482-.725,1.234,3.531,2.175,8.191,1.67,9.612-.66.714-1.17-.154-1.86-1-.949-1.236,1.333-4.523,2.015-7.889.375Zm27.159-2.576c-.127.557-.5.8-.816.727s-.576-.477-.479-1.211c.2-1.469,1.631-.992,1.3.484Zm-55.036,5.216a1.5,1.5,0,0,0,.18-1.9c-.382-.4-1.164-.383-2.214.651-2.1,2.07.02,3.7,2.034,1.247Zm51.9-6.717c-.072,1.007-1.167,1.12-1.247-.174a12.436,12.436,0,0,0-2.015-5.75c-.993-1.414.427-2.114,1.681-.179a12.139,12.139,0,0,1,1.581,6.1Zm3.251-2.283c0,1.111-1.009.9-1.161-.257a10.213,10.213,0,0,0-1.6-3.923c-.579-.83.5-1.924,1.5-.369a9.878,9.878,0,0,1,1.26,4.549Zm-56.807-1.435c1.115-.477,1.01-1.908-.982-1.491-1.887.394-5.724,2.935-6.927,5.923-.572,1.422.778,2.028,1.386.931a13.88,13.88,0,0,1,6.523-5.363Zm24.432.293c1.326,1.269,2.447-.314.939-1.985-4.512-5-12.388-6.914-16-6.277-1.86.327-1.784,1.918-.215,1.768,4.794-.457,10.831,2.24,15.277,6.494Zm15.114-10.973c-2.467-2.545,3.5-4.619,3.225.3-.2,3.567-5.281,4.524-8.048.767-1.432-1.943-1.614-4.034-3.429-5.2-2.32-1.491-7.408-.363-7.2,3.483.067,1.238,1.277,1.392,1.566.309.508-1.9,2.784-1.875,3.708.323.671,1.6-.318,3.341-2.8,3.571-1.668.155-4.57-1.622-5.156-5.144-.678-4.065,3.315-7.624,8.621-7.008a1.564,1.564,0,0,0,1.931-1.055c1.327-2.78,4.062-5.453,9.186-5.755a13.523,13.523,0,0,1,11.387,4.4c1.42,1.586-.089,2.362-.869,1.7-4.016-3.413-7.652-3.2-8.653-2.99-1.4.288-.978,1.422-.081,1.536a10.223,10.223,0,0,1,4.6,2.018c1.437,1.282.312,2.279-.525,1.585a7.853,7.853,0,0,0-4.543-1.582c-1.269.126-1.509,1.135-.368,1.4a6.37,6.37,0,0,1,2.866,1.748c.524.634.241,1.783-.888,1.068-2.118-1.34-5.3-1.645-6.821.736a3.035,3.035,0,0,0,1.507,4.373c.757.274,1.324-.023.788-.577Zm-.449-10.3c1.526-.218,1.236-2.044-.673-1.8a5.006,5.006,0,0,0-4.106,3.151c-.353,1.112.355,1.887,1.1.936a5.25,5.25,0,0,1,3.677-2.285Z" fill="#ffe56e" fill-rule="evenodd"/><path d="M1638.974,3924.776c-1.564-.417-1.8-2.426.174-3.093,1.744-.587,5.067,2.568,2,5.528-3.38,3.261-13.364-.36-9.718-9.446s11.831-7.188,13.832-6.547c1.38.443,2.52-.168,3.649-1.036s5.534-4.667,13.916-.319c1.371.712,1.531.364,2.838-.2,2.916-1.259,10.261-2.775,16.439,5.171a2.961,2.961,0,0,0,2.51,1.323c7.8.246,23.37,12.226,20.989,33.268-2.687,23.742-19.65,39.255-29.094,43.8-16.767,8.072-27.717,4.912-34.366,6.611-2.927.748-4.535-2.165-1.148-3.234,4.446-1.4,15.4.62,25.48-3.372,2.809-1.113,2.418-3.679-.861-2.706-15.022,4.456-23.589.405-34.447,4.514-4.226,1.6-5.445-1.326-1.5-3.093,9.648-4.318,20.331-1.486,30.357-4.1,7.447-1.942,13.372-3.129,19.021-10.4a1.526,1.526,0,1,0-2.445-1.81,20.794,20.794,0,0,1-10.345,6.726c-2.914.821-3.505-1.793-1.36-2.453,5.509-1.694,11.855-7.893,13.01-12.338,1.039-4-2.217-3.545-3.014-1.152s-7.217,12.878-21.288,13.164c-8.633.176-21.03-.824-29.022,2.439-3.263,1.332-5.085-1.67-1.879-3.266,4.985-2.48,15.854-2.654,29.173-2.534,7.7.07,14.515-3.183,18.662-9.429,1.786-2.692-1.17-3.595-2.522-1.781-2.745,3.68-8.39,7.555-17.163,7.847-6.322.212-13-.181-19.652.494-3.512.355-3.969-2.188-1.308-2.786,5.372-1.21,11.576-.212,17.938-1.054,2.369-.314,2.346-2.653.159-2.729-8.225-.286-19.539-1.1-29.133,2.758-2.995,1.2-4.409-1.271-1.8-2.76,5.376-3.072,17.936-4.508,29.675-3.486,5,.434,10.5-.11,13.311-5.752.667-1.34,3.306-1.087,2.5,1.241-.986,2.859-4.167,5.439-7.179,6.625-2.889,1.137-1.655,3.083,1.265,2.134,5.485-1.78,10.089-7.665,10.271-13.42s-5.94-10.012-9.318-8.478c-3.657,1.661-2.842,4.583-1.149,5.35.639.289,1.1-.1.953-.719-.371-1.562,2.324-2.972,3.618-.427,1.13,2.22-1.678,4.818-5.3,3.609-3.867-1.29-4.093-5.346-4.1-6.664s-1.341-3.345-4.379-3a2.707,2.707,0,0,0-2.234,3.859.8.8,0,0,0,1.336-.021,1.607,1.607,0,0,1,2.756,1.58c-.625,2.308-5.557,2.341-6.671-2.014a5.529,5.529,0,0,1,4.384-6.672,8.9,8.9,0,0,1,4.867.692c.884.383,1.334.537,1.754.243a12.3,12.3,0,0,1,11.689-2.112,13.706,13.706,0,0,1,7.359,5.779,3.132,3.132,0,0,0,1.5,1.243c3.734,1.478,12.3-1.844,12.059-9.235-.234-7.108-6.843-8.119-9.082-7.117-2.2.984-3.36,4.569.183,5.4.624.147.95-.314.471-.718-1.336-1.127.806-3.169,2.365-1.521,2.4,2.539-1.2,6.822-5.437,5.647-4.429-1.231-5.2-7.2-2.918-10.248,1.353-1.807-2.685-7.624-7.345-6.05-5.033,1.7-4.282,6.6-.647,7.548,1.158.3,2.154-.274.839-1.249-1.983-1.47.439-4.676,3.038-2.32,2.505,2.271-.394,8.555-6.313,5.988-4.969-2.154-5.095-8.012-2.445-11.1,1.353-1.575-2.549-7.439-6.841-5.513-4.618,2.072-2.768,6.743.379,7.074,1.074.113,1.474-.756.478-1.061-2.305-.706-.449-4.332,2.145-2.3,2.158,1.687.878,6.844-4.442,6.566-4.02-.211-6.428-4.4-5.921-6.651.385-1.7-3.655-3.706-6.9-1.869-2.9,1.643-3.176,5.216-2.366,6.567a3.317,3.317,0,0,0,3.8,1.745c.7-.227.617-.993-.1-1.184Zm34.366,62.375c-1.929.977-1.5,3.289,2.012,2.032,2.678-.959,10.182-6.173,13.171-12.107,1.146-2.277-1.046-3.623-2.208-1.739a30.013,30.013,0,0,1-12.975,11.814Zm8.313-19.121c-.691,1.749-.49,3.146.141,3.59s1.693-.065,2.727-2.127c2.457-4.905-1.022-6.143-2.868-1.463Zm-46.572,32.993c1.132-.553,1.473-1.516,1.15-2.178s-1.311-1.027-2.836-.382c-2.76,1.167-1.621,4.177,1.686,2.56Zm23.218-16.16c1.761-.484,1.8-3.226-1.386-2.33-4.825,1.356-27.307-3.78-38.784,6.534-2.412,2.168.042,4.634,2.515,2.82,13.552-9.937,27-4.1,37.655-7.024Zm-41.81,1.31c1.117-1.018,1.233-2.112.686-2.633s-1.758-.47-3.292.8c-2.776,2.3-.659,4.8,2.606,1.831Zm24.02-26.07c-1.723.181-2.369-1.725-.024-2.5,4.35-1.439,10.053,1.668,13.268-1.78a1.425,1.425,0,1,1,2.132,1.889c-3.381,4.336-9.421,1.765-15.376,2.391Zm34.983-17.133c-2.116.357-1,1.859.847,1.459,3.066-.664,5.079-2.094,5.543-4.2.4-1.814-1.2-1.944-1.62-.553-.51,1.7-2.943,2.985-4.77,3.292Zm-51.48,32.185c2.973-.625,1.938-3.561-.829-3.178-3.655.5-11.5,3.443-15.274,8.787-1.7,2.4.453,3.706,2.1,1.97a27.218,27.218,0,0,1,14-7.579Zm49.2-34.589c-.688.273-.872.676-.7.944s.7.4,1.443.136c1-.36.746-1.671-.744-1.08Zm-24.2,14.263c1.9-.675,1.265-2.86-.372-2.182-1.87.776-4.8-.268-6.671.187-1.909.464-.981,2.227.68,1.85,1.027-.234,4.5.807,6.363.145Zm-36.856,17.892c1.4-.757.2-3.331-2.467-2.127-3.5,1.58-6.9,4.56-8.171,7.1-1.483,2.968,1.445,3.791,2.26,2.24,1.727-3.289,5.348-5.58,8.378-7.215Zm12.5-30.022c-.559-.388-.741-1.547,1.067-1.838,3.665-.587,6.905,3.193,4.757,6.382-2.4,3.566-6.882,5.288-16.141,3.026-11.583-2.829-20.313-.5-24.866,4.237-1.659,1.726-.307,2.979,1.2,1.886,1.271-.921,4.12-3.264,7.2-3.738,1.884-.289,2.05,1.362.714,1.832-10.253,3.6-13.838,12.686-14.062,15.85-.182,2.575,1.931,2.866,2.437.848,4.176-16.643,23.108-16.776,29.819-17.005,1.908-.066,2.369,1.6.343,1.912-2.729.417-18.632.364-23.123,8.825-1.089,2.052.641,3.442,2.029,1.516,2.68-3.719,8.275-6.1,11.538-6.208,2.876-.1,3.021,1.609,1.011,1.936-7.018,1.142-11.242,6.679-11.817,9.445-.5,2.407,1.83,2.961,2.614,1.031,3.668-9.022,21.853-10.392,28.031-12.092,7.536-2.074,13.437-9.368,10.6-16.759-3.257-8.484-14.929-9.47-18.334-3.842-2.72,4.5.956,8.128,3.685,7.608,2.419-.46,3.942-3.012,1.3-4.852Zm35.164-6.664c-.09.692-.522,1.043-.923,1s-.77-.491-.737-1.391c.068-1.8,1.9-1.434,1.66.4Zm-8.042-6.017c-.9-1.25.834-2.447,2.193-.612a16.972,16.972,0,0,1,2.436,7.134c.044,1.758-1.493,1.6-1.695.226a17.63,17.63,0,0,0-2.934-6.748Zm-28.535,23.5c-1.854-.022-1.909,1.557-.159,1.752,5.067.565,9.98-2.443,10.337-5.777.179-1.675-1.147-1.987-1.607-.532-.675,2.131-3.97,4.613-8.571,4.557Zm28.832-17.116c.152.686-.133,1.156-.525,1.236s-.89-.227-1.168-1.095c-.553-1.735,1.291-1.958,1.693-.141Zm-58.429,34.681a1.841,1.841,0,0,0-.8-2.2c-.637-.248-1.494.185-2.119,1.886-1.25,3.4,1.967,4.108,2.916.318Zm54.161-34.706c.448,1.158-.71,1.857-1.478.461a15.285,15.285,0,0,0-5.258-5.333c-1.845-1.05-.634-2.573,1.775-1.081a14.919,14.919,0,0,1,4.961,5.953Zm2.415-4.243c.588,1.232-.652,1.525-1.425.324a12.584,12.584,0,0,0-3.833-3.523c-1.08-.619-.457-2.4,1.469-1.2a12.138,12.138,0,0,1,3.789,4.4Zm-63.889,28.219c.989-1.115.12-2.651-1.874-1.142-1.89,1.429-4.821,6.266-4.59,10.218.11,1.881,1.928,1.846,2.029.307a17.052,17.052,0,0,1,4.435-9.383Zm27.307-12.5c2.141.714,2.555-1.634,0-2.7-7.641-3.192-17.4-1.183-21.079,1.421-1.9,1.34-.976,3.069.69,2.079,5.088-3.025,13.213-3.195,20.386-.8Zm11.039-20.128c-4.077-1.533,1.462-6.968,3.741-1.361,1.654,4.068-3.495,7.8-8.542,5.077-2.612-1.409-3.911-3.637-6.54-3.981-3.361-.439-8.424,3.485-6.175,7.651.724,1.341,2.149.877,1.9-.478-.431-2.375,2.11-3.546,4.29-1.588,1.584,1.422,1.4,3.88-1.237,5.438-1.772,1.048-5.931.6-8.43-3.01-2.886-4.162-.317-10.213,5.9-12.313,1.706-.576,1.589-1.6,1.591-2.186.017-3.787,1.653-8.193,7.189-11.218,7.252-3.961,12.948-1.935,14.966-1.084,2.41,1.017,1.141,2.671-.074,2.343-6.255-1.686-10.183.462-11.187,1.219-1.4,1.053-.34,2.094.717,1.749a12.568,12.568,0,0,1,6.168-.169c2.27.67,1.542,2.368.249,2.037a9.646,9.646,0,0,0-5.879.626c-1.346.805-1.083,2.054.323,1.744a7.825,7.825,0,0,1,4.1.439c.916.429,1.2,1.855-.426,1.653-3.057-.377-6.758.955-7.2,4.4a3.73,3.73,0,0,0,3.971,4.069c.984-.093,1.459-.721.572-1.055Zm-5.9-11.212c1.581-1.042.3-2.919-1.694-1.649a6.152,6.152,0,0,0-2.91,5.657c.191,1.421,1.385,1.911,1.716.462a6.449,6.449,0,0,1,2.888-4.47Z" fill="#ffe56e" fill-rule="evenodd"/><path d="M1004.093,3966.936c-.437-2.241,2.236-2.718,3.551-1.426a2.846,2.846,0,0,1-.768,4.566c-3.875,2.466-8.43-1.765-8.26-6.4a6.818,6.818,0,0,1,5.215-6.522c.694-.148,1.117-.156.985-1.684-.6-6.98,3.025-16.392,16.364-19.194,12.128-2.547,23.157,5.159,25.581,7.584,1.8,1.8.839,3.422-1.52,1.662-4.175-3.115-7.307-4.326-9.156-4.591-2.488-.357-2.639,1.9-.009,2.855,5.339,1.933,15.723,7.367,22.167,22.988,4.5,10.913,12.484,17.415,16.883,18.905,2.416.819,1.5,3.515-1.242,2.542s-11.972-4.892-17.872-19.112c-3.233-7.792-10.024-16.394-16.31-19.509-2.048-1.015-2.386,1.229-.738,2.132,2.462,1.35,9.741,7.34,12.213,13.718.685,1.768-1.187,2.887-2.21.7-2.069-4.434-7.836-10.327-15.139-13.418-4.821-2.039-10.926-.817-11.33,5.278-.289,4.379,4.143,5.664,6.068,4.947a3.562,3.562,0,0,0,2.441-3.463c-.042-1.157-1.354-1.907-1.442-.5-.139,2.229-2.441,2.3-3.647.7-1.147-1.521.024-3.967,2.065-4.355,3.6-.684,6.4,2.948,5.6,6.462-.671,2.961-4.307,6.292-9.635,3.818-2.171-1.007-4.281-.821-5.555.4a7.9,7.9,0,0,0,1.042,11.983c3.6,2.916,7.642-.072,8.048-1.905.285-1.288-.809-1.655-1.414-.862a3.184,3.184,0,0,1-4.987-2.388c-.453-3.161,4.515-5.168,7.851-1.3,2.571,2.981,2.29,8.387-2.746,11.2-4.85,2.7-13.521.219-15.48-8.882-1.08-5.02.526-7.65.555-8.986a1.734,1.734,0,0,0-.431-1.5c-1.736-1.782-5.026-2.916-7.256-1.189-1.5,1.164-2.348,3.165-1.15,4.941.793,1.177,1.814.586,1.664-.186Z" fill="#ffe56e" fill-rule="evenodd"/><path d="M1028.593,3941.726c2.239.472,2.458-2.11.076-2.526-9.487-1.659-16.957,4.884-18.447,7.681-.9,1.7.643,2.691,1.643,1.351,1.4-1.874,8.269-8.292,16.728-6.506Z" fill="#ffe56e" fill-rule="evenodd"/><path d="M1050.728,3949.965c-1.887-2.015-.488-3.224,1.808-1.359,4.673,3.794,7.787,9.3,11.669,17.631,4.555,9.779,13.2,14.227,17.929,14.387,3.16.107,3.695,3.01-.091,3.194-5.187.252-16.2-5.72-20.392-16.5a53.239,53.239,0,0,0-10.923-17.349Z" fill="#ffe56e" fill-rule="evenodd"/><path d="M1039.057,3960.285c-2.7-.977-3.442,2.048-1.063,3.023,3.314,1.359,6.448,4.734,8.271,12.394,1.645,6.914,5.269,12.716,8.039,14.784,2.244,1.677,3.438-.669,1.483-2.758-4.113-4.4-5.821-10.046-6.826-13.917-1.38-5.315-4.334-11.511-9.9-13.526Z" fill="#ffe56e" fill-rule="evenodd"/><path d="M1009.609,3952.869c.184-.977-.136-1.506-.554-1.555s-.937.38-1.153,1.322c-.334,1.46,1.3,2.423,1.707.233Z" fill="#ffe56e" fill-rule="evenodd"/><path d="M1054.365,3971.93a1.942,1.942,0,0,0-1.625-1.241c-.555.025-.925.577-.514,1.911.823,2.669,3.355,2.168,2.139-.67Z" fill="#ffe56e" fill-rule="evenodd"/><path d="M1036.955,3967.653c-2.612-1.49-3.567.539-1.141,1.969s2.516,3.239,3.03,4.8,2.089.846,1.812-1.2a8.286,8.286,0,0,0-3.7-5.564Z" fill="#ffe56e" fill-rule="evenodd"/><path d="M1057.657,3978.261c-.873-1.664-2.856-1.2-1.937,1.206,2.372,6.207,7.047,11.3,11.949,12.911,3.842,1.263,4.27-1.668,1.889-2.536-3.989-1.456-8.816-5.71-11.9-11.581Z" fill="#ffe56e" fill-rule="evenodd"/><path d="M1045.885,3994.994c1.872,1.041.893,2.953-1.643,1.845-2.365-1.035-5.342-4.373-7.235-8.694-2.188-5-1.131-8.977-3.146-11.941-1.116-1.64.495-4.036,2.434-1.468,1.909,2.53,1.346,8.3,2.967,12.225a16.455,16.455,0,0,0,6.623,8.033Z" fill="#ffe56e" fill-rule="evenodd"/><path d="M1042.9,3978.212c-.4-1.94-2.638-1.629-2.547,1.37.094,3.112,3.055,9.95,7.675,13.252,2.322,1.658,3.275-.445,1.822-1.957a26.246,26.246,0,0,1-6.95-12.665Z" fill="#ffe56e" fill-rule="evenodd"/><path d="M1353.526,3940.817c2.22.535,1.541,3.165-.18,3.822a2.845,2.845,0,0,1-3.833-2.6c-.631-4.549,5.112-6.931,9.252-4.85a6.82,6.82,0,0,1,3.761,7.456c-.154.692-.323,1.081,1.121,1.6,6.6,2.356,13.647,9.571,10.644,22.866-2.731,12.088-14.327,18.911-17.54,20.106-2.388.888-3.461-.661-.878-2.074,4.569-2.5,6.973-4.844,7.984-6.415,1.359-2.114-.633-3.192-2.593-1.2-3.979,4.051-13.241,11.232-30.127,10.592-11.8-.447-21.03,4.106-24.215,7.486-1.751,1.856-3.822-.1-1.8-2.188s9.43-8.85,24.815-8.3c8.431.3,19.078-2.293,24.527-6.713,1.775-1.44-.125-2.682-1.632-1.559-2.252,1.678-10.727,5.8-17.556,5.4-1.892-.113-2.131-2.281.287-2.3,4.893-.037,12.651-2.829,18.5-8.184,3.861-3.535,5.289-9.595-.085-12.5-3.861-2.085-6.874,1.41-7.023,3.459a3.561,3.561,0,0,0,2.133,3.66c1.07.444,2.3-.437,1.057-1.1-1.969-1.053-1.074-3.176.88-3.607,1.86-.411,3.6,1.672,3.1,3.689-.878,3.562-5.345,4.594-8.208,2.407-2.413-1.842-3.93-6.534.537-10.35,1.82-1.555,2.528-3.551,1.948-5.217a7.9,7.9,0,0,0-11.33-4.039c-4.149,2.06-3.114,6.979-1.616,8.111,1.052.795,1.841-.047,1.372-.927a3.183,3.183,0,0,1,4.246-3.542c3.063.9,2.821,6.256-2.083,7.681-3.781,1.1-8.58-1.407-9.038-7.156-.44-5.534,5.427-12.385,14.518-10.38,5.014,1.107,6.738,3.661,7.94,4.244a1.734,1.734,0,0,0,1.546.233c2.343-.837,4.743-3.357,4.1-6.1-.433-1.85-1.9-3.452-4.015-3.1-1.4.232-1.287,1.407-.523,1.591Z" fill="#ffe56e" fill-rule="evenodd"/><path d="M1366.256,3973.586c-1.361,1.838.9,3.113,2.266,1.119,5.455-7.936,2.614-17.452.69-19.97-1.169-1.53-2.714-.535-1.912.932,1.121,2.052,4.1,10.969-1.044,17.919Z" fill="#ffe56e" fill-rule="evenodd"/><path d="M1349.553,3990.284c2.618-.876,3.136.9.484,2.211-5.394,2.67-11.695,3.211-20.888,3.274-10.788.073-18.428,6.079-20.543,10.317-1.412,2.828-4.274,2.107-2.866-1.412,1.929-4.821,11.941-12.348,23.492-11.675a53.22,53.22,0,0,0,20.321-2.715Z" fill="#ffe56e" fill-rule="evenodd"/><path d="M1345.025,3975.378c2.014-2.051-.43-3.982-2.306-2.224-2.614,2.448-6.988,3.893-14.712,2.363-6.971-1.381-13.755-.5-16.788,1.159-2.458,1.343-.823,3.4,1.891,2.5,5.709-1.911,11.557-1.113,15.495-.417,5.407.957,12.271.849,16.42-3.377Z" fill="#ffe56e" fill-rule="evenodd"/><path d="M1364.023,3951.686c.812.574,1.425.5,1.644.143s.044-1.01-.722-1.6c-1.189-.911-2.742.169-.922,1.455Z" fill="#ffe56e" fill-rule="evenodd"/><path d="M1328.067,3984.452a1.943,1.943,0,0,0,1.8-.961c.207-.515-.14-1.081-1.525-1.262-2.769-.363-3.367,2.148-.28,2.223Z" fill="#ffe56e" fill-rule="evenodd"/><path d="M1339.2,3970.4c2.442-1.755.994-3.467-1.316-1.857s-3.992.942-5.622.76-1.637,1.548.339,2.148a8.284,8.284,0,0,0,6.6-1.051Z" fill="#ffe56e" fill-rule="evenodd"/><path d="M1320.941,3984.812c1.876-.1,2.277-2.1-.292-2.264-6.631-.425-13.206,1.707-16.711,5.494-2.748,2.968-.261,4.576,1.52,2.772,2.983-3.021,8.86-5.641,15.483-6Z" fill="#ffe56e" fill-rule="evenodd"/><path d="M1310.623,3967.144c-1.726,1.27-3.057-.416-.994-2.261,1.925-1.72,6.2-3.038,10.915-2.961,5.455.089,8.635,2.706,12.168,2.107,1.956-.332,3.464,2.13.322,2.824-3.1.684-8.111-2.231-12.35-2.388a16.449,16.449,0,0,0-10.061,2.679Z" fill="#ffe56e" fill-rule="evenodd"/><path d="M1327.125,3971.414c1.931.443,2.579-1.721-.187-2.886-2.868-1.209-10.319-1.362-15.243,1.465-2.474,1.421-.959,3.163,1.021,2.471a26.24,26.24,0,0,1,14.409-1.05Z" fill="#ffe56e" fill-rule="evenodd"/><path d="M1542.745,3932.349c2.73.769,1.764,4-.405,4.738-1.473.5-4.293.027-4.636-3.407-.569-5.679,6.674-8.366,11.716-5.586a8.473,8.473,0,0,1,4.318,9.435c-.224.852-.452,1.326,1.317,2.035,8.081,3.236,16.494,12.526,12.139,28.893-3.96,14.88-18.679,22.8-22.725,24.138-3.007.99-4.266-.984-.993-2.617,5.791-2.889,8.887-5.686,10.216-7.589,1.787-2.561-.636-3.993-3.163-1.608-5.132,4.842-16.97,13.323-37.906,11.732-14.626-1.11-26.306,4.108-30.419,8.154-2.261,2.223-4.741-.3-2.126-2.8s12.126-10.545,31.2-9.135c10.455.773,23.8-1.949,30.77-7.18,2.272-1.7-.029-3.335-1.952-2.012-2.876,1.977-13.594,6.7-22.053,5.875-2.344-.229-2.539-2.933.465-2.841,6.076.185,15.841-2.916,23.356-9.29,4.96-4.207,7.019-11.664.483-15.522-4.7-2.771-8.6,1.427-8.883,3.964a4.426,4.426,0,0,0,2.476,4.646c1.307.6,2.873-.436,1.363-1.319-2.4-1.4-1.183-3.994,1.264-4.438,2.328-.422,4.387,2.246,3.676,4.727-1.258,4.381-6.852,5.453-10.305,2.6-2.909-2.4-4.571-8.3,1.154-12.825,2.333-1.846,3.306-4.291,2.665-6.387-.882-2.883-5.665-9.245-13.878-5.549-5.248,2.363-4.195,8.519-2.389,9.995,1.27,1.037,2.288.028,1.748-1.086s1.052-5.673,5.439-4.2c3.76,1.265,3.208,7.9-2.949,9.438-4.746,1.185-10.586-2.151-10.884-9.31-.286-6.893,7.321-15.123,18.515-12.2,6.173,1.61,8.193,4.863,9.658,5.643a2.157,2.157,0,0,0,1.909.363c2.949-.929,6.047-3.945,5.379-7.385-.45-2.318-2.2-4.375-4.838-4.041-1.75.222-1.665,1.686-.724,1.951Z" fill="#ffe56e" fill-rule="evenodd"/><path d="M1557.006,3973.635c-1.776,2.22.966,3.908,2.761,1.5,7.148-9.6,4.068-21.546,1.8-24.763-1.379-1.954-3.345-.792-2.418,1.067,1.3,2.6,4.573,13.813-2.141,22.2Z" fill="#ffe56e" fill-rule="evenodd"/><path d="M1535.481,3993.582c3.292-.965,3.851,1.263.5,2.768-6.824,3.061-14.672,3.436-26.089,3.081-13.4-.418-23.167,6.68-25.993,11.842-1.886,3.446-5.406,2.416-3.492-1.887,2.622-5.9,15.408-14.77,29.718-13.391a66.089,66.089,0,0,0,25.359-2.413Z" fill="#ffe56e" fill-rule="evenodd"/><path d="M1530.561,3974.861c2.6-2.452-.346-4.964-2.759-2.871-3.361,2.917-8.859,4.506-18.377,2.242-8.591-2.043-17.056-1.268-20.9.648-3.115,1.552-1.182,4.189,2.231,3.189,7.178-2.1,14.4-.838,19.259.212,6.668,1.443,15.195,1.632,20.546-3.42Z" fill="#ffe56e" fill-rule="evenodd"/><path d="M1555.265,3946.339c.981.75,1.747.692,2.035.255s.1-1.253-.822-2.018c-1.432-1.188-3.412.08-1.213,1.763Z" fill="#ffe56e" fill-rule="evenodd"/><path d="M1509.078,3985.329a2.412,2.412,0,0,0,2.286-1.108c.282-.63-.122-1.349-1.833-1.639-3.421-.581-4.283,2.509-.453,2.747Z" fill="#ffe56e" fill-rule="evenodd"/><path d="M1523.563,3968.406c3.115-2.064,1.4-4.258-1.546-2.367s-5,.98-7.016.678-2.107,1.845.319,2.683a10.293,10.293,0,0,0,8.243-.994Z" fill="#ffe56e" fill-rule="evenodd"/><path d="M1500.213,3985.44c2.334-.038,2.927-2.5-.255-2.824-8.214-.841-16.478,1.5-21.009,6.034-3.551,3.555-.539,5.67,1.757,3.514,3.846-3.611,11.267-6.587,19.507-6.724Z" fill="#ffe56e" fill-rule="evenodd"/><path d="M1488.235,3963.017c-2.2,1.495-3.776-.661-1.128-2.854,2.47-2.045,7.839-3.481,13.692-3.163,6.768.368,10.593,3.767,15.008,3.19,2.444-.32,4.2,2.807.268,3.522-3.876.7-9.966-3.152-15.223-3.548-4.454-.335-9.245.564-12.617,2.853Z" fill="#ffe56e" fill-rule="evenodd"/><path d="M1508.522,3969.1c2.377.641,3.283-2.015-.095-3.592-3.505-1.636-12.749-2.177-19,1.1-3.139,1.648-1.339,3.882,1.152,3.116a32.611,32.611,0,0,1,17.939-.625Z" fill="#ffe56e" fill-rule="evenodd"/><path d="M1096.781,4012.542c-1.648-.514-2.523,1.615.122,2.547,3.534,1.244,12.308,2.161,20.4-.5,1.346-.443,1.575-3.029-.823-2.181-3.108,1.1-12.251,2.454-19.694.136Z" fill="#ffe56e" fill-rule="evenodd"/><path d="M1135.064,4005.764c1.022-.6,2.6,1.19.858,2.477s-11.1,4.771-13.09,4.923-3.08-1.981-.784-2.413a66.483,66.483,0,0,0,13.016-4.987Z" fill="#ffe56e" fill-rule="evenodd"/><path d="M1104.805,4010.13c1.61-.287,1.378-1.909-.34-1.836a24.731,24.731,0,0,1-5.976-.59c-1.646-.48-2.294,1.233-.211,2.03a14.377,14.377,0,0,0,6.527.4Z" fill="#ffe56e" fill-rule="evenodd"/><path d="M1124.614,4006.422c1.56-.885.836-2.6-.492-2.118a38.8,38.8,0,0,1-13.967,3.58c-2.1.184-1.837,2.3.4,2.372,3.326.106,9.839-1.439,14.06-3.834Z" fill="#ffe56e" fill-rule="evenodd"/><path d="M1115.186,4003.31c2.226-.707,1.372-2.694-.675-2.214-6.483,1.52-11.344,1.924-14.22,1.535-1.99-.269-2.905,2.31-.181,2.7,2.065.293,8.839-.034,15.076-2.018Z" fill="#ffe56e" fill-rule="evenodd"/><path d="M1180.745,3975.233c-.542.762.707,1.391,1.643.54,2.477-2.254,1.071-5.678-2.264-6.518-4.789-1.2-9.481,4.6-14.153,14.657a40.771,40.771,0,0,1-22.137,20.841c-2.443.9-4.4-.9-1.2-2.661,2.775-1.522,9.418-5.089,12.259-8.678,1.816-2.3-.185-3.923-1.949-1.785s-13.248,9.906-22.235,12.577c-2.57.764-3.843-1.29-1.172-2.265,5.175-1.889,15.711-8.307,17.744-10.48s.014-4.091-2.853-1.394-16.328,10.533-23.124,11.525c-2.054.3-3.274-1.47-.631-2.135,4.156-1.046,11.41-4.9,13.815-6.771s.687-4.078-1.891-1.987c-2.93,2.376-18.44,9.681-32.114,8.891-2.335-.134-2.561-2.393.527-2.411,7.565-.043,35.691-6.062,43.788-28.415.87-2.4-2.176-3.66-2.8-1.123-.865,3.5-7.776,14.888-19.335,20.254-2.142.995-4.339-.5-1.584-1.911,7.384-3.782,12.113-9.446,13.083-12.093s-1.166-3.03-2.242-1.437c-3.958,5.864-17.318,15.678-28.76,15.887-2.753.051-2.71-2.666-.362-2.755a27.13,27.13,0,0,0,14.385-5.607c1.993-1.6-.219-3.467-1.6-2.248s-6.394,3.21-8.21,3.7c-3.256.87-3.281-1.808-1.294-2.582,5.034-1.964,13.85-8.687,17.491-15.439,1.579-2.927-1.352-3.152-2.3-1.2-1.428,2.951-13.5,15.118-23.382,16.3-2.782.332-3.588-1.771-.693-2.387,6.107-1.3,17.386-9.213,21.883-18.11,3.862-7.641,4.43-15.574,12.317-15.307,4,.136,5.677,5.333,3.327,7.056-2.891,2.119-4.836-1.624-2.354-2.683,1.261-.538.691-2.1-.991-1.758s-3.628,1.8-3.032,4.957c.836,4.431,7.49,5.548,10.218-.389s-.739-12.146,3.739-17.611c1.055-1.287-.194-2.286-1.628-.8s-2.154,4.547-2.532,5.472-1.695,1.053-1.326-1.175c.514-3.114.4-5.588-3.487-10.138-3.6-4.212-2.684-8.917,1.149-10.066,4.195-1.257,6.421,2.221,5.58,4.659-.79,2.287-4.189,2.358-4.183.048.005-1.847-1.5-1.313-1.6-.138-.229,2.576,2.154,5.689,5.49,3.31,4.029-2.874,3.014-9.982,10.159-10.952,4.851-.658,8.631,3.768,7.249,7.175-1.462,3.6-4.454,3.213-5.966,1.807s-.93-3.758,1.061-3.654c1.63.085,1.409-1.607.134-1.913-3.654-.877-6.461,3.568-3.529,7.3,3.442,4.381,9.039-.815,15.592,4.142,4.332,3.278,3.107,8.376,2.738,9.423s.57,1.8,1.531,2.33c2.408,1.32,3.7,6.951.013,10.027-4.27,3.56-8.181.96-9-1.076-.979-2.442.58-4.621,2.9-3.779,1.992.725,1.93,2.7,1.015,3.232s.522,1.922,2.52.3c2.431-1.97.42-5.494-2.282-6.074-2.832-.61-5.118.3-7.076-.219-4.489-1.185-4.04-4.848-3.092-6.217a3.358,3.358,0,0,1,3.923-.914,1.635,1.635,0,0,1-.172,3.142c-1.7.26-.285,2.177,2.114,1.036,3.756-1.785,2.037-6.536-1.836-7.245-5.943-1.089-8.714,4.7-9.17,8.49-.932,7.757,2.228,13.538,13.046,14.123,6.274.339,10.269-4.394,16.076.554,2.858,2.435,2.042,6.789-.207,8.549a3.808,3.808,0,0,1-5.4-1.421c-1.628-3.724,3.29-4.12,2.9-1.695-.136.836.747,1.367,1.245.3a3.436,3.436,0,0,0-2.99-4.6c-3.858-.443-6.5,4.966-1.677,8.737,3.212,2.51,10.915-1.076,15.06,5.843,2.5,4.177-1.088,8.267-4.82,8.85-3.088.482-5.472-1.926-5.489-3.856-.048-5.212,6.39-2.731,4.412.053Z" fill="#ffe56e" fill-rule="evenodd"/><path d="M1114.963,3988.741c2.017-.873,3.1.538.889,1.881-4.832,2.931-11.724,3.942-14.106,3.527s-1.935-2.774-.1-2.66c3.316.206,6.3.284,13.317-2.748Z" fill="#ffe56e" fill-rule="evenodd"/><path d="M1159.307,3988.241a1.081,1.081,0,0,1-1.7.021,1.347,1.347,0,0,1,.321-1.834c1.6-1.431,2.955.337,1.383,1.813Z" fill="#ffe56e" fill-rule="evenodd"/><path d="M1138.475,3986.4c-1.309.751-.622,2.516,1.533,1.581s5.415-4.117,6.142-6.236a1.374,1.374,0,1,0-2.519-1.071,11.935,11.935,0,0,1-5.156,5.726Z" fill="#ffe56e" fill-rule="evenodd"/><path d="M1099.857,3983.223c.961-.186,1.5-.827,1.373-1.381s-.918-1.022-2.617-.859c-3.4.326-2.312,2.925,1.244,2.24Z" fill="#ffe56e" fill-rule="evenodd"/><path d="M1130.033,3959.261c.707-2.215,3.379-1.438,2.585,1.577a28.822,28.822,0,0,1-10.292,14.811c-1.492,1.043-3.443-.666-1.2-2.312,1.884-1.384,6.482-6.467,8.91-14.076Z" fill="#ffe56e" fill-rule="evenodd"/><path d="M1135.477,3967.214c-.543,1.165,1.076,2.623,2.174.881a21.8,21.8,0,0,0,2.966-10.861c-.043-2.221-2.4-2.918-2.532-.6a28.52,28.52,0,0,1-2.608,10.58Z" fill="#ffe56e" fill-rule="evenodd"/><path d="M1126.467,3958.162c-.4.84-1.078.936-1.557.617a1.408,1.408,0,0,1-.349-1.864c.968-1.927,2.833-.712,1.906,1.247Z" fill="#ffe56e" fill-rule="evenodd"/><path d="M1143.51,3947.059c-.075-.948.456-1.366,1.019-1.315a1.467,1.467,0,0,1,1.208,1.5c.123,2.2-2.052,2.023-2.227-.188Z" fill="#ffe56e" fill-rule="evenodd"/><path d="M1145.418,3940.474c.03,1.158-1.542,1.992-1.9-.568-.832-5.921,3.981-9.937,5.99-10.627,1.358-.465,1.421.834.289,1.645s-4.534,3.571-4.377,9.55Z" fill="#ffe56e" fill-rule="evenodd"/><path d="M1135.576,3939.28c.379-.472.835-.569,1.108-.353s.364.745.014,1.522c-.906,2.014-2.755.867-1.122-1.169Z" fill="#ffe56e" fill-rule="evenodd"/><path d="M1133.041,3939.361c-1.074,1.561-3.421.956-2.046-.712,1.607-1.947,1.789-5.476,1.461-7.931-.258-1.931.853-1.975,1.511-.254.9,2.358.657,6.6-.926,8.9Z" fill="#ffe56e" fill-rule="evenodd"/><path d="M1128.378,3938.942c-.689.915-2.315.687-1.392-.95a10.49,10.49,0,0,0-1.431-11.728c-1.109-1.295-2.233-.331-1.154,1.045,1.259,1.6,2.1,4.23,1.85,5.575s-1.707,1.449-1.633-.021a6.741,6.741,0,0,0-3.122-5.675c-1.42-.933-1.514-1.576-.024-2.977a3.534,3.534,0,0,0-.92-5.756c-2.022-.994-3.233-.175-3.671.336-.814.953.139,1.716.789,1.224a1.931,1.931,0,0,1,2.625,1.345c.368,1.375-1.086,2.912-3.216,2.651-2.382-.293-4.035-3.129-2.2-6.006,1.64-2.572,7.185-2.523,10.794,1.212,4.916,5.088,6.639,14.5,2.706,19.725Z" fill="#ffe56e" fill-rule="evenodd"/><path d="M1713.556,3989.269c-1.744-1.007-3.284,1.19-.515,2.928,3.7,2.321,13.447,5.611,23.327,4.654,1.644-.16,2.567-3.043-.377-2.692-3.816.453-14.564-.347-22.435-4.89Z" fill="#ffe56e" fill-rule="evenodd"/><path d="M1758.835,3991.366c1.318-.423,2.651,2.018.342,3.037s-13.849,2.583-16.15,2.247-3-3.043-.273-2.946a77.589,77.589,0,0,0,16.081-2.338Z" fill="#ffe56e" fill-rule="evenodd"/><path d="M1723.3,3988.581c1.906.086,2.057-1.819.084-2.176a28.8,28.8,0,0,1-6.646-2.2c-1.749-.967-2.925.815-.76,2.255a16.774,16.774,0,0,0,7.322,2.122Z" fill="#ffe56e" fill-rule="evenodd"/><path d="M1746.78,3989.438c2-.607,1.618-2.744-.016-2.536a45.232,45.232,0,0,1-16.8.495c-2.431-.329-2.678,2.146-.153,2.8,3.756.973,11.56.884,16.973-.758Z" fill="#ffe56e" fill-rule="evenodd"/><path d="M1736.854,3983.483c2.714-.235,2.251-2.713-.2-2.691-7.764.067-13.4-.718-16.568-1.9-2.194-.815-3.9,1.885-.9,3.022,2.274.862,10.064,2.225,17.665,1.567Z" fill="#ffe56e" fill-rule="evenodd"/><path d="M1818.615,3968.34c-.812.728.448,1.764,1.73,1.035,3.4-1.929,2.673-6.184-.906-7.993-5.138-2.6-11.962,2.8-19.852,13.046a47.535,47.535,0,0,1-30.518,18.034c-3.008.393-4.774-2.155-.678-3.333,3.545-1.02,12.015-3.376,16.167-6.73,2.653-2.145.794-4.51-1.76-2.529s-17.607,7.874-28.513,8.609c-3.119.211-4.04-2.452-.753-2.876,6.371-.823,20-5.425,22.868-7.376s1.063-4.649-2.888-2.316-21.27,7.8-29.254,7.186c-2.414-.185-3.348-2.511-.171-2.59,4.995-.125,14.233-2.651,17.448-4.163s1.826-4.463-1.642-2.745c-3.941,1.952-23.454,6.289-38.8,1.888-2.622-.752-2.3-3.379,1.216-2.608,8.616,1.889,42.149,2.247,57.084-21.1,1.6-2.511-1.538-4.721-2.9-2-1.881,3.761-12.658,14.942-27.18,18.085-2.692.582-4.808-1.681-1.313-2.58,9.368-2.41,16.2-7.641,17.978-10.4s-.55-3.744-2.181-2.208c-6,5.656-23.714,13.4-36.782,10.7-3.144-.647-2.4-3.727.294-3.226a31.629,31.629,0,0,0,17.8-2.693c2.677-1.308.639-4-1.24-2.965s-8.1,2.013-10.286,2.1c-3.926.156-3.269-2.9-.81-3.269,6.229-.943,17.978-6.333,23.85-13.079,2.545-2.926-.731-3.933-2.309-1.95-2.381,2.991-19.225,13.738-30.77,12.547-3.248-.336-3.627-2.935-.176-2.893,7.279.088,22.135-6.026,29.529-14.994,6.35-7.7,9.028-16.58,17.931-14.256,4.51,1.179,5.09,7.521,1.976,8.878-3.831,1.67-5.084-3.086-1.99-3.654,1.572-.289,1.323-2.207-.676-2.254s-4.588,1.117-4.719,4.862c-.185,5.254,7.1,8.23,11.721,2.175s2.271-14.005,8.765-19.074c1.529-1.193.364-2.65-1.646-1.331s-3.615,4.62-4.282,5.575-2.2.764-1.207-1.676c1.382-3.41,1.888-6.252-1.369-12.424-3.016-5.713-.769-10.83,3.885-11.155,5.093-.355,6.734,4.171,5.153,6.728-1.484,2.4-5.368,1.609-4.77-1.017.479-2.1-1.366-1.877-1.786-.566-.921,2.871.992,7.022,5.4,5.17,5.319-2.236,5.986-10.581,14.36-9.854,5.687.494,8.852,6.5,6.408,10.017-2.586,3.726-5.89,2.514-7.249.527s-.095-4.512,2.143-3.883c1.832.514,2.014-1.468.642-2.143-3.932-1.933-8.262,2.4-5.883,7.4,2.793,5.864,10.489,1.388,16.673,8.7,4.088,4.838,1.388,10.323.7,11.419s.186,2.2,1.144,3.042c2.4,2.118,2.431,8.855-2.553,11.408-5.769,2.957-9.552-1-9.959-3.528-.488-3.028,1.844-5.107,4.26-3.556,2.08,1.334,1.5,3.564.327,3.935s.1,2.32,2.79.989c3.269-1.618,1.884-6.142-1.04-7.494-3.065-1.419-5.9-.972-7.993-2.062-4.8-2.5-3.353-6.548-1.924-7.863a3.914,3.914,0,0,1,4.7-.035,1.906,1.906,0,0,1-1,3.53c-2-.14-.881,2.4,2.14,1.72,4.729-1.069,3.991-6.912-.232-8.711-6.481-2.76-11.116,3.112-12.605,7.308-3.048,8.584-.934,15.969,11.221,19.405,7.05,1.993,12.8-2.367,18.143,4.749,2.627,3.5.583,8.245-2.425,9.671-2.282,1.081-5.347-.781-5.776-3-.9-4.652,4.8-3.843,3.729-1.185-.369.915.5,1.746,1.34.655a4.006,4.006,0,0,0-2.222-6c-4.274-1.493-8.668,3.982-4.145,9.508,3.01,3.677,12.691,1.571,15.633,10.5,1.776,5.392-3.355,9.124-7.749,8.832-3.636-.243-5.731-3.592-5.257-5.793,1.281-5.94,7.969-1.469,5.006,1.191Z" fill="#ffe56e" fill-rule="evenodd"/><path d="M1740.333,3966.854c2.518-.476,3.39,1.407.528,2.367-6.246,2.1-14.344,1.481-16.946.4s-1.491-3.651.567-3.051c3.718,1.084,7.095,1.937,15.851.285Z" fill="#ffe56e" fill-rule="evenodd"/><path d="M1790.9,3977.644a1.26,1.26,0,0,1-1.944-.412,1.571,1.571,0,0,1,.835-2c2.188-1.217,3.275,1.141,1.109,2.416Z" fill="#ffe56e" fill-rule="evenodd"/><path d="M1767.675,3970.214c-1.681.519-1.352,2.7,1.339,2.192s7.214-3.3,8.583-5.52a1.6,1.6,0,1,0-2.59-1.864,13.92,13.92,0,0,1-7.332,5.192Z" fill="#ffe56e" fill-rule="evenodd"/><path d="M1724.564,3956.709c1.141.035,1.918-.556,1.916-1.22s-.783-1.4-2.757-1.647c-3.948-.5-3.379,2.735.841,2.867Z" fill="#ffe56e" fill-rule="evenodd"/><path d="M1765.025,3937.184c1.372-2.338,4.212-.77,2.537,2.455a33.606,33.606,0,0,1-15.5,14.21c-1.965.8-3.747-1.639-.777-2.938,2.5-1.091,9.029-5.695,13.74-13.727Z" fill="#ffe56e" fill-rule="evenodd"/><path d="M1769.18,3947.624c-.916,1.186.552,3.259,2.247,1.559a25.437,25.437,0,0,0,6.156-11.594c.52-2.537-1.978-3.933-2.727-1.331a33.22,33.22,0,0,1-5.676,11.366Z" fill="#ffe56e" fill-rule="evenodd"/><path d="M1761.251,3935.02c-.667.854-1.466.788-1.93.3a1.644,1.644,0,0,1,.081-2.21c1.595-1.943,3.4-.084,1.849,1.907Z" fill="#ffe56e" fill-rule="evenodd"/><path d="M1783.48,3926.757c.158-1.1.868-1.438,1.495-1.235a1.709,1.709,0,0,1,.989,2.019c-.424,2.537-2.851,1.776-2.484-.784Z" fill="#ffe56e" fill-rule="evenodd"/><path d="M1787.336,3919.756c-.262,1.325-2.264,1.87-2.017-1.134.57-6.947,7.073-10.283,9.535-10.552,1.664-.182,1.4,1.312-.092,1.944s-6.072,2.9-7.426,9.742Z" fill="#ffe56e" fill-rule="evenodd"/><path d="M1776.448,3915.877c.552-.441,1.095-.434,1.35-.118s.224.94-.373,1.735c-1.547,2.058-3.355.28-.977-1.617Z" fill="#ffe56e" fill-rule="evenodd"/><path d="M1773.544,3915.32c-1.622,1.5-4.136.21-2.145-1.334,2.326-1.8,3.438-5.771,3.693-8.647.2-2.263,1.477-2.029,1.784.1.42,2.913-.944,7.675-3.332,9.884Z" fill="#ffe56e" fill-rule="evenodd"/><path d="M1768.348,3913.648c-1.019.865-2.81.189-1.34-1.436a12.234,12.234,0,0,0,1.376-13.707c-.93-1.757-2.455-.948-1.58.893,1.021,2.149,1.3,5.35.676,6.815s-2.313,1.211-1.853-.442a7.855,7.855,0,0,0-2.1-7.254c-1.375-1.426-1.318-2.182.735-3.393a4.12,4.12,0,0,0,.429-6.783c-2.045-1.649-3.633-1.027-4.262-.557-1.17.874-.281,1.986.584,1.594s2.575.543,2.641,2.2-1.981,3.034-4.336,2.191c-2.635-.944-3.789-4.593-.966-7.4,2.524-2.506,8.819-1.029,11.967,4.143,4.289,7.047,3.837,18.2-1.974,23.129Z" fill="#ffe56e" fill-rule="evenodd"/><path d="M1383.265,4002.333c-1.649-.514-2.524,1.614.121,2.546,3.535,1.245,12.309,2.162,20.4-.5,1.346-.443,1.575-3.029-.822-2.182-3.108,1.1-12.251,2.455-19.694.137Z" fill="#ffe56e" fill-rule="evenodd"/><path d="M1421.548,3995.555c1.022-.6,2.6,1.19.858,2.477s-11.1,4.771-13.09,4.923-3.08-1.981-.784-2.413a66.568,66.568,0,0,0,13.016-4.987Z" fill="#ffe56e" fill-rule="evenodd"/><path d="M1391.288,3999.921c1.611-.287,1.379-1.909-.339-1.836a24.731,24.731,0,0,1-5.976-.59c-1.646-.48-2.3,1.233-.211,2.03a14.372,14.372,0,0,0,6.526.4Z" fill="#ffe56e" fill-rule="evenodd"/><path d="M1411.1,3996.213c1.561-.885.836-2.6-.492-2.119a38.765,38.765,0,0,1-13.967,3.581c-2.1.183-1.836,2.3.4,2.371,3.326.107,9.839-1.439,14.059-3.833Z" fill="#ffe56e" fill-rule="evenodd"/><path d="M1401.67,3993.1c2.226-.708,1.372-2.694-.675-2.214-6.484,1.519-11.344,1.923-14.221,1.534-1.989-.268-2.9,2.311-.181,2.7,2.065.293,8.84-.034,15.077-2.017Z" fill="#ffe56e" fill-rule="evenodd"/><path d="M1467.229,3965.024c-.542.762.707,1.391,1.642.539,2.478-2.254,1.072-5.677-2.264-6.517-4.788-1.2-9.48,4.6-14.152,14.657a40.773,40.773,0,0,1-22.138,20.84c-2.443.9-4.4-.9-1.2-2.66,2.774-1.522,9.417-5.089,12.259-8.678,1.816-2.3-.185-3.923-1.949-1.785s-13.249,9.906-22.236,12.577c-2.57.764-3.842-1.29-1.172-2.265,5.176-1.889,15.712-8.308,17.745-10.481s.013-4.09-2.853-1.393-16.328,10.533-23.124,11.525c-2.055.3-3.274-1.47-.631-2.135,4.156-1.046,11.41-4.9,13.815-6.771s.687-4.079-1.891-1.987c-2.93,2.375-18.44,9.681-32.114,8.891-2.335-.135-2.561-2.394.526-2.411,7.566-.043,35.692-6.062,43.788-28.415.87-2.4-2.176-3.66-2.8-1.123-.865,3.5-7.776,14.888-19.335,20.254-2.142.995-4.34-.5-1.585-1.911,7.384-3.782,12.113-9.446,13.083-12.093s-1.166-3.03-2.241-1.437c-3.958,5.863-17.318,15.678-28.76,15.887-2.753.051-2.711-2.667-.362-2.755a27.13,27.13,0,0,0,14.385-5.607c1.993-1.6-.219-3.467-1.6-2.248s-6.394,3.21-8.211,3.7c-3.256.87-3.281-1.808-1.294-2.583,5.035-1.963,13.85-8.686,17.492-15.438,1.578-2.927-1.353-3.152-2.3-1.2-1.428,2.951-13.5,15.118-23.382,16.3-2.781.332-3.587-1.771-.692-2.387,6.107-1.3,17.386-9.213,21.882-18.11,3.862-7.641,4.43-15.574,12.318-15.307,4,.136,5.676,5.333,3.326,7.055-2.89,2.12-4.836-1.623-2.353-2.682,1.26-.538.691-2.1-.991-1.758s-3.628,1.8-3.032,4.957c.835,4.431,7.49,5.548,10.218-.389s-.74-12.147,3.739-17.611c1.055-1.287-.2-2.287-1.628-.8s-2.154,4.547-2.533,5.472-1.694,1.052-1.326-1.176c.515-3.113.4-5.587-3.486-10.137-3.6-4.213-2.684-8.917,1.149-10.066,4.2-1.257,6.421,2.221,5.579,4.659-.789,2.287-4.188,2.358-4.182.047.005-1.846-1.5-1.313-1.6-.137-.23,2.576,2.154,5.689,5.489,3.31,4.03-2.874,3.015-9.982,10.159-10.952,4.852-.658,8.631,3.767,7.25,7.175-1.462,3.6-4.455,3.213-5.966,1.806s-.93-3.757,1.061-3.653c1.63.085,1.409-1.607.133-1.913-3.654-.877-6.46,3.568-3.528,7.3,3.442,4.381,9.038-.815,15.591,4.142,4.333,3.278,3.107,8.376,2.739,9.422s.569,1.8,1.53,2.331c2.409,1.319,3.7,6.951.014,10.027-4.271,3.56-8.181.96-9-1.077-.979-2.441.58-4.62,2.894-3.778,1.992.725,1.93,2.7,1.016,3.231s.522,1.922,2.52.3c2.431-1.97.419-5.494-2.282-6.075-2.832-.609-5.118.3-7.077-.218-4.488-1.185-4.039-4.848-3.092-6.217a3.358,3.358,0,0,1,3.923-.914,1.635,1.635,0,0,1-.172,3.142c-1.7.26-.285,2.177,2.115,1.035,3.755-1.785,2.037-6.535-1.836-7.244-5.943-1.089-8.714,4.7-9.17,8.49-.932,7.757,2.228,13.538,13.046,14.123,6.274.339,10.268-4.394,16.076.554,2.858,2.435,2.041,6.789-.207,8.549a3.809,3.809,0,0,1-5.4-1.421c-1.629-3.724,3.29-4.12,2.9-1.7-.135.836.748,1.367,1.246.3a3.436,3.436,0,0,0-2.99-4.6c-3.858-.443-6.5,4.966-1.677,8.737,3.211,2.51,10.915-1.077,15.06,5.843,2.5,4.177-1.088,8.266-4.82,8.85-3.088.482-5.472-1.926-5.49-3.856-.047-5.212,6.391-2.731,4.413.053Z" fill="#ffe56e" fill-rule="evenodd"/><path d="M1401.447,3978.531c2.017-.872,3.1.539.888,1.882-4.832,2.931-11.723,3.942-14.1,3.526s-1.935-2.773-.1-2.659c3.316.206,6.3.283,13.317-2.749Z" fill="#ffe56e" fill-rule="evenodd"/><path d="M1445.791,3978.031a1.082,1.082,0,0,1-1.7.022,1.348,1.348,0,0,1,.322-1.835c1.6-1.43,2.955.338,1.383,1.813Z" fill="#ffe56e" fill-rule="evenodd"/><path d="M1424.959,3976.19c-1.309.752-.623,2.517,1.533,1.582s5.415-4.118,6.141-6.236a1.373,1.373,0,1,0-2.518-1.072,11.927,11.927,0,0,1-5.156,5.726Z" fill="#ffe56e" fill-rule="evenodd"/><path d="M1386.34,3973.014c.962-.186,1.5-.827,1.374-1.381s-.919-1.022-2.617-.859c-3.4.326-2.312,2.925,1.243,2.24Z" fill="#ffe56e" fill-rule="evenodd"/><path d="M1416.517,3949.052c.707-2.215,3.379-1.438,2.585,1.576a28.82,28.82,0,0,1-10.292,14.811c-1.492,1.043-3.444-.665-1.2-2.311,1.883-1.384,6.481-6.467,8.91-14.076Z" fill="#ffe56e" fill-rule="evenodd"/><path d="M1421.961,3957c-.544,1.165,1.075,2.623,2.174.881a21.823,21.823,0,0,0,2.966-10.861c-.043-2.222-2.4-2.919-2.533-.6a28.5,28.5,0,0,1-2.607,10.58Z" fill="#ffe56e" fill-rule="evenodd"/><path d="M1412.951,3947.953c-.4.84-1.078.935-1.558.617a1.409,1.409,0,0,1-.348-1.864c.968-1.927,2.832-.712,1.906,1.247Z" fill="#ffe56e" fill-rule="evenodd"/><path d="M1429.994,3936.85c-.075-.949.456-1.367,1.018-1.315a1.466,1.466,0,0,1,1.208,1.5c.124,2.2-2.051,2.023-2.226-.188Z" fill="#ffe56e" fill-rule="evenodd"/><path d="M1431.9,3930.265c.031,1.158-1.541,1.992-1.9-.568-.832-5.921,3.981-9.938,5.989-10.627,1.359-.466,1.422.834.29,1.644s-4.534,3.571-4.378,9.551Z" fill="#ffe56e" fill-rule="evenodd"/><path d="M1422.06,3929.071c.379-.472.835-.569,1.108-.353s.364.745.014,1.522c-.907,2.014-2.755.866-1.122-1.169Z" fill="#ffe56e" fill-rule="evenodd"/><path d="M1419.525,3929.152c-1.074,1.561-3.421.956-2.046-.712,1.606-1.947,1.789-5.477,1.461-7.931-.258-1.931.853-1.976,1.51-.255.9,2.359.657,6.6-.925,8.9Z" fill="#ffe56e" fill-rule="evenodd"/><path d="M1414.862,3928.732c-.689.916-2.315.688-1.392-.949a10.49,10.49,0,0,0-1.431-11.728c-1.109-1.295-2.233-.331-1.154,1.044,1.259,1.606,2.1,4.231,1.85,5.576s-1.707,1.449-1.634-.021a6.74,6.74,0,0,0-3.121-5.675c-1.42-.933-1.514-1.577-.025-2.977a3.533,3.533,0,0,0-.919-5.756c-2.022-1-3.233-.175-3.671.336-.814.953.139,1.715.789,1.224a1.931,1.931,0,0,1,2.625,1.345c.368,1.375-1.087,2.912-3.216,2.651-2.382-.294-4.035-3.129-2.2-6.006,1.641-2.572,7.186-2.523,10.8,1.212,4.916,5.088,6.639,14.5,2.706,19.724Z" fill="#ffe56e" fill-rule="evenodd"/><path d="M0,3949.237c28.519-5.353,53.222-12.716,76.926-.247s40.936,21.357,64.32,29.654,41.377-9.457,51.047.012,24.442,25.641,50.538,20.222,30.756-9.9,42.081-18.988,14.591-13.207,30.829-12.747c9.545.271,34.37,31.891,54.7,40.843,38.373,16.894,62.264,12.683,57.3-15.579-5.512-31.356,40.4-21.2,64.592-3.93,19.556,13.958,36.841,18.037,55.8,20.609,15.01,2.036,34.053-.792,48.625-6.219,18.88-7.032,14.971-11.043,33.875-10.677,11.179.217,24.473,12.6,29.029,15.6,20.506,11.108,57.76,11.416,80.093-8.266,20.351-17.933,28.684-33.02,57.429-20.882,12.218,5.159,12.886,20.609,38.62,31.614,17.879,7.645,41.08,6.174,46.747-1.284,5.629-7.41-5.621-14.639-3.452-25.954,2.266-11.823,28.594-12.435,47.3,1.962,23.7,18.239,42.4-1.478,65.037-.39,27.2,1.307,28.713,16.43,49.244,17.307,33.567,1.435,35.233-5.021,47.2-11.849s27.359-1.44,34,3.391,17.58,23.861,40.368,5.5,33.87-16.374,42.074-10.276c7.5,5.575,11.769,13.76,31.766,18.673s42.67-3.308,48.234-6.689c7.1-4.312,42.616-19.091,69.308-10.357s33.258,26.165,70.837,11.254c32.772-13,41.425,6.274,55.373,13.656,7.908,4.185,21.068-13.823,45.368-13.173s39.815-24.438,58.075-20.882,21.311,12.015,48.548,24.61c14.417,6.667,43.454-2.412,57-10.518,10.774-6.446,20.257,2.165,42.748,6.287s39.366-1.077,69.629-14.089,36.995-26.2,66.222-26.865c25.926-.593,52.556,19.32,52.556,19.32v66.055H0C-.037,4036.5,0,3949.237,0,3949.237Z" fill="#ffe56e" fill-rule="evenodd"/></g></svg>